<?xml version="1.0" encoding="utf-8" standalone="no"?>
<!DOCTYPE svg PUBLIC "-//W3C//DTD SVG 1.1//EN"
  "http://www.w3.org/Graphics/SVG/1.1/DTD/svg11.dtd">
<!-- Created with matplotlib (https://matplotlib.org/) -->
<svg height="360pt" version="1.1" viewBox="0 0 864 360" width="864pt" xmlns="http://www.w3.org/2000/svg" xmlns:xlink="http://www.w3.org/1999/xlink">
 <metadata>
  <rdf:RDF xmlns:cc="http://creativecommons.org/ns#" xmlns:dc="http://purl.org/dc/elements/1.1/" xmlns:rdf="http://www.w3.org/1999/02/22-rdf-syntax-ns#">
   <cc:Work>
    <dc:type rdf:resource="http://purl.org/dc/dcmitype/StillImage"/>
    <dc:date>2021-01-22T03:59:28.151443</dc:date>
    <dc:format>image/svg+xml</dc:format>
    <dc:creator>
     <cc:Agent>
      <dc:title>Matplotlib v3.3.2, https://matplotlib.org/</dc:title>
     </cc:Agent>
    </dc:creator>
   </cc:Work>
  </rdf:RDF>
 </metadata>
 <defs>
  <style type="text/css">*{stroke-linecap:butt;stroke-linejoin:round;}</style>
 </defs>
 <g id="figure_1">
  <g id="patch_1">
   <path d="M 0 360 
L 864 360 
L 864 0 
L 0 0 
z
" style="fill:#ffffff;"/>
  </g>
  <g id="axes_1">
   <g id="patch_2">
    <path d="M 108 315 
L 777.6 315 
L 777.6 43.2 
L 108 43.2 
z
" style="fill:#ffffff;"/>
   </g>
   <g id="matplotlib.axis_1">
    <g id="xtick_1">
     <g id="line2d_1">
      <path clip-path="url(#p94cda362a1)" d="M 189.163636 315 
L 189.163636 43.2 
" style="fill:none;stroke:#cccccc;stroke-linecap:round;"/>
     </g>
     <g id="text_1">
      <!-- 0.5 -->
      <g style="fill:#262626;" transform="translate(181.518636 332.373594)scale(0.11 -0.11)">
       <defs>
        <path d="M 4.15625 35.296875 
Q 4.15625 48 6.765625 55.734375 
Q 9.375 63.484375 14.515625 67.671875 
Q 19.671875 71.875 27.484375 71.875 
Q 33.25 71.875 37.59375 69.546875 
Q 41.9375 67.234375 44.765625 62.859375 
Q 47.609375 58.5 49.21875 52.21875 
Q 50.828125 45.953125 50.828125 35.296875 
Q 50.828125 22.703125 48.234375 14.96875 
Q 45.65625 7.234375 40.5 3 
Q 35.359375 -1.21875 27.484375 -1.21875 
Q 17.140625 -1.21875 11.234375 6.203125 
Q 4.15625 15.140625 4.15625 35.296875 
z
M 13.1875 35.296875 
Q 13.1875 17.671875 17.3125 11.828125 
Q 21.4375 6 27.484375 6 
Q 33.546875 6 37.671875 11.859375 
Q 41.796875 17.71875 41.796875 35.296875 
Q 41.796875 52.984375 37.671875 58.78125 
Q 33.546875 64.59375 27.390625 64.59375 
Q 21.34375 64.59375 17.71875 59.46875 
Q 13.1875 52.9375 13.1875 35.296875 
z
" id="ArialMT-48"/>
        <path d="M 9.078125 0 
L 9.078125 10.015625 
L 19.09375 10.015625 
L 19.09375 0 
z
" id="ArialMT-46"/>
        <path d="M 4.15625 18.75 
L 13.375 19.53125 
Q 14.40625 12.796875 18.140625 9.390625 
Q 21.875 6 27.15625 6 
Q 33.5 6 37.890625 10.78125 
Q 42.28125 15.578125 42.28125 23.484375 
Q 42.28125 31 38.0625 35.34375 
Q 33.84375 39.703125 27 39.703125 
Q 22.75 39.703125 19.328125 37.765625 
Q 15.921875 35.84375 13.96875 32.765625 
L 5.71875 33.84375 
L 12.640625 70.609375 
L 48.25 70.609375 
L 48.25 62.203125 
L 19.671875 62.203125 
L 15.828125 42.96875 
Q 22.265625 47.46875 29.34375 47.46875 
Q 38.71875 47.46875 45.15625 40.96875 
Q 51.609375 34.46875 51.609375 24.265625 
Q 51.609375 14.546875 45.953125 7.46875 
Q 39.0625 -1.21875 27.15625 -1.21875 
Q 17.390625 -1.21875 11.203125 4.25 
Q 5.03125 9.71875 4.15625 18.75 
z
" id="ArialMT-53"/>
       </defs>
       <use xlink:href="#ArialMT-48"/>
       <use x="55.615234" xlink:href="#ArialMT-46"/>
       <use x="83.398438" xlink:href="#ArialMT-53"/>
      </g>
     </g>
    </g>
    <g id="xtick_2">
     <g id="line2d_2">
      <path clip-path="url(#p94cda362a1)" d="M 239.890909 315 
L 239.890909 43.2 
" style="fill:none;stroke:#cccccc;stroke-linecap:round;"/>
     </g>
     <g id="text_2">
      <!-- 1.0 -->
      <g style="fill:#262626;" transform="translate(232.245909 332.373594)scale(0.11 -0.11)">
       <defs>
        <path d="M 37.25 0 
L 28.46875 0 
L 28.46875 56 
Q 25.296875 52.984375 20.140625 49.953125 
Q 14.984375 46.921875 10.890625 45.40625 
L 10.890625 53.90625 
Q 18.265625 57.375 23.78125 62.296875 
Q 29.296875 67.234375 31.59375 71.875 
L 37.25 71.875 
z
" id="ArialMT-49"/>
       </defs>
       <use xlink:href="#ArialMT-49"/>
       <use x="55.615234" xlink:href="#ArialMT-46"/>
       <use x="83.398438" xlink:href="#ArialMT-48"/>
      </g>
     </g>
    </g>
    <g id="xtick_3">
     <g id="line2d_3">
      <path clip-path="url(#p94cda362a1)" d="M 290.618182 315 
L 290.618182 43.2 
" style="fill:none;stroke:#cccccc;stroke-linecap:round;"/>
     </g>
     <g id="text_3">
      <!-- 1.5 -->
      <g style="fill:#262626;" transform="translate(282.973182 332.373594)scale(0.11 -0.11)">
       <use xlink:href="#ArialMT-49"/>
       <use x="55.615234" xlink:href="#ArialMT-46"/>
       <use x="83.398438" xlink:href="#ArialMT-53"/>
      </g>
     </g>
    </g>
    <g id="xtick_4">
     <g id="line2d_4">
      <path clip-path="url(#p94cda362a1)" d="M 341.345455 315 
L 341.345455 43.2 
" style="fill:none;stroke:#cccccc;stroke-linecap:round;"/>
     </g>
     <g id="text_4">
      <!-- 2.0 -->
      <g style="fill:#262626;" transform="translate(333.700455 332.373594)scale(0.11 -0.11)">
       <defs>
        <path d="M 50.34375 8.453125 
L 50.34375 0 
L 3.03125 0 
Q 2.9375 3.171875 4.046875 6.109375 
Q 5.859375 10.9375 9.828125 15.625 
Q 13.8125 20.3125 21.34375 26.46875 
Q 33.015625 36.03125 37.109375 41.625 
Q 41.21875 47.21875 41.21875 52.203125 
Q 41.21875 57.421875 37.46875 61 
Q 33.734375 64.59375 27.734375 64.59375 
Q 21.390625 64.59375 17.578125 60.78125 
Q 13.765625 56.984375 13.71875 50.25 
L 4.6875 51.171875 
Q 5.609375 61.28125 11.65625 66.578125 
Q 17.71875 71.875 27.9375 71.875 
Q 38.234375 71.875 44.234375 66.15625 
Q 50.25 60.453125 50.25 52 
Q 50.25 47.703125 48.484375 43.546875 
Q 46.734375 39.40625 42.65625 34.8125 
Q 38.578125 30.21875 29.109375 22.21875 
Q 21.1875 15.578125 18.9375 13.203125 
Q 16.703125 10.84375 15.234375 8.453125 
z
" id="ArialMT-50"/>
       </defs>
       <use xlink:href="#ArialMT-50"/>
       <use x="55.615234" xlink:href="#ArialMT-46"/>
       <use x="83.398438" xlink:href="#ArialMT-48"/>
      </g>
     </g>
    </g>
    <g id="xtick_5">
     <g id="line2d_5">
      <path clip-path="url(#p94cda362a1)" d="M 392.072727 315 
L 392.072727 43.2 
" style="fill:none;stroke:#cccccc;stroke-linecap:round;"/>
     </g>
     <g id="text_5">
      <!-- 2.5 -->
      <g style="fill:#262626;" transform="translate(384.427727 332.373594)scale(0.11 -0.11)">
       <use xlink:href="#ArialMT-50"/>
       <use x="55.615234" xlink:href="#ArialMT-46"/>
       <use x="83.398438" xlink:href="#ArialMT-53"/>
      </g>
     </g>
    </g>
    <g id="xtick_6">
     <g id="line2d_6">
      <path clip-path="url(#p94cda362a1)" d="M 442.8 315 
L 442.8 43.2 
" style="fill:none;stroke:#cccccc;stroke-linecap:round;"/>
     </g>
     <g id="text_6">
      <!-- 3.0 -->
      <g style="fill:#262626;" transform="translate(435.155 332.373594)scale(0.11 -0.11)">
       <defs>
        <path d="M 4.203125 18.890625 
L 12.984375 20.0625 
Q 14.5 12.59375 18.140625 9.296875 
Q 21.78125 6 27 6 
Q 33.203125 6 37.46875 10.296875 
Q 41.75 14.59375 41.75 20.953125 
Q 41.75 27 37.796875 30.921875 
Q 33.84375 34.859375 27.734375 34.859375 
Q 25.25 34.859375 21.53125 33.890625 
L 22.515625 41.609375 
Q 23.390625 41.5 23.921875 41.5 
Q 29.546875 41.5 34.03125 44.421875 
Q 38.53125 47.359375 38.53125 53.46875 
Q 38.53125 58.296875 35.25 61.46875 
Q 31.984375 64.65625 26.8125 64.65625 
Q 21.6875 64.65625 18.265625 61.421875 
Q 14.84375 58.203125 13.875 51.765625 
L 5.078125 53.328125 
Q 6.6875 62.15625 12.390625 67.015625 
Q 18.109375 71.875 26.609375 71.875 
Q 32.46875 71.875 37.390625 69.359375 
Q 42.328125 66.84375 44.9375 62.5 
Q 47.5625 58.15625 47.5625 53.265625 
Q 47.5625 48.640625 45.0625 44.828125 
Q 42.578125 41.015625 37.703125 38.765625 
Q 44.046875 37.3125 47.5625 32.6875 
Q 51.078125 28.078125 51.078125 21.140625 
Q 51.078125 11.765625 44.234375 5.25 
Q 37.40625 -1.265625 26.953125 -1.265625 
Q 17.53125 -1.265625 11.296875 4.34375 
Q 5.078125 9.96875 4.203125 18.890625 
z
" id="ArialMT-51"/>
       </defs>
       <use xlink:href="#ArialMT-51"/>
       <use x="55.615234" xlink:href="#ArialMT-46"/>
       <use x="83.398438" xlink:href="#ArialMT-48"/>
      </g>
     </g>
    </g>
    <g id="xtick_7">
     <g id="line2d_7">
      <path clip-path="url(#p94cda362a1)" d="M 493.527273 315 
L 493.527273 43.2 
" style="fill:none;stroke:#cccccc;stroke-linecap:round;"/>
     </g>
     <g id="text_7">
      <!-- 3.5 -->
      <g style="fill:#262626;" transform="translate(485.882273 332.373594)scale(0.11 -0.11)">
       <use xlink:href="#ArialMT-51"/>
       <use x="55.615234" xlink:href="#ArialMT-46"/>
       <use x="83.398438" xlink:href="#ArialMT-53"/>
      </g>
     </g>
    </g>
    <g id="xtick_8">
     <g id="line2d_8">
      <path clip-path="url(#p94cda362a1)" d="M 544.254545 315 
L 544.254545 43.2 
" style="fill:none;stroke:#cccccc;stroke-linecap:round;"/>
     </g>
     <g id="text_8">
      <!-- 4.0 -->
      <g style="fill:#262626;" transform="translate(536.609545 332.373594)scale(0.11 -0.11)">
       <defs>
        <path d="M 32.328125 0 
L 32.328125 17.140625 
L 1.265625 17.140625 
L 1.265625 25.203125 
L 33.9375 71.578125 
L 41.109375 71.578125 
L 41.109375 25.203125 
L 50.78125 25.203125 
L 50.78125 17.140625 
L 41.109375 17.140625 
L 41.109375 0 
z
M 32.328125 25.203125 
L 32.328125 57.46875 
L 9.90625 25.203125 
z
" id="ArialMT-52"/>
       </defs>
       <use xlink:href="#ArialMT-52"/>
       <use x="55.615234" xlink:href="#ArialMT-46"/>
       <use x="83.398438" xlink:href="#ArialMT-48"/>
      </g>
     </g>
    </g>
    <g id="xtick_9">
     <g id="line2d_9">
      <path clip-path="url(#p94cda362a1)" d="M 594.981818 315 
L 594.981818 43.2 
" style="fill:none;stroke:#cccccc;stroke-linecap:round;"/>
     </g>
     <g id="text_9">
      <!-- 4.5 -->
      <g style="fill:#262626;" transform="translate(587.336818 332.373594)scale(0.11 -0.11)">
       <use xlink:href="#ArialMT-52"/>
       <use x="55.615234" xlink:href="#ArialMT-46"/>
       <use x="83.398438" xlink:href="#ArialMT-53"/>
      </g>
     </g>
    </g>
    <g id="xtick_10">
     <g id="line2d_10">
      <path clip-path="url(#p94cda362a1)" d="M 645.709091 315 
L 645.709091 43.2 
" style="fill:none;stroke:#cccccc;stroke-linecap:round;"/>
     </g>
     <g id="text_10">
      <!-- 5.0 -->
      <g style="fill:#262626;" transform="translate(638.064091 332.373594)scale(0.11 -0.11)">
       <use xlink:href="#ArialMT-53"/>
       <use x="55.615234" xlink:href="#ArialMT-46"/>
       <use x="83.398438" xlink:href="#ArialMT-48"/>
      </g>
     </g>
    </g>
    <g id="text_11">
     <!-- Set 3-Dart Average -->
     <g style="fill:#c44e52;" transform="translate(374.817969 348.998594)scale(0.14 -0.14)">
      <defs>
       <path d="M 9.28125 3.515625 
L 9.28125 20.125 
L 14.890625 20.0625 
Q 15.140625 11.765625 19.703125 7.78125 
Q 24.265625 3.8125 33.59375 3.8125 
Q 42.28125 3.8125 46.84375 7.25 
Q 51.421875 10.6875 51.421875 17.28125 
Q 51.421875 22.5625 48.65625 25.390625 
Q 45.90625 28.21875 37.015625 30.90625 
L 27.390625 33.796875 
Q 16.9375 36.96875 12.671875 41.703125 
Q 8.40625 46.4375 8.40625 54.6875 
Q 8.40625 63.96875 14.984375 69.09375 
Q 21.578125 74.21875 33.5 74.21875 
Q 38.578125 74.21875 44.625 73.109375 
Q 50.6875 72.015625 57.515625 69.921875 
L 57.515625 54.390625 
L 52 54.390625 
Q 51.171875 62.109375 46.84375 65.546875 
Q 42.53125 69 33.6875 69 
Q 25.984375 69 21.953125 65.84375 
Q 17.921875 62.703125 17.921875 56.6875 
Q 17.921875 51.46875 20.9375 48.484375 
Q 23.96875 45.515625 33.796875 42.578125 
L 42.828125 39.890625 
Q 52.734375 36.921875 56.953125 32.296875 
Q 61.1875 27.6875 61.1875 19.921875 
Q 61.1875 9.328125 54.390625 3.953125 
Q 47.609375 -1.421875 34.1875 -1.421875 
Q 28.171875 -1.421875 21.9375 -0.1875 
Q 15.71875 1.03125 9.28125 3.515625 
z
" id="DejaVuSerif-83"/>
       <path d="M 54.203125 25 
L 15.484375 25 
L 15.484375 24.609375 
Q 15.484375 14.109375 19.4375 8.765625 
Q 23.390625 3.421875 31.109375 3.421875 
Q 37.015625 3.421875 40.796875 6.515625 
Q 44.578125 9.625 46.09375 15.71875 
L 53.328125 15.71875 
Q 51.171875 7.171875 45.375 2.875 
Q 39.59375 -1.421875 30.171875 -1.421875 
Q 18.796875 -1.421875 11.890625 6.078125 
Q 4.984375 13.578125 4.984375 25.984375 
Q 4.984375 38.28125 11.765625 45.796875 
Q 18.5625 53.328125 29.59375 53.328125 
Q 41.359375 53.328125 47.65625 46.0625 
Q 53.953125 38.8125 54.203125 25 
z
M 43.609375 30.171875 
Q 43.3125 39.265625 39.765625 43.875 
Q 36.234375 48.484375 29.59375 48.484375 
Q 23.390625 48.484375 19.828125 43.84375 
Q 16.265625 39.203125 15.484375 30.171875 
z
" id="DejaVuSerif-101"/>
       <path d="M 10.796875 46.6875 
L 2.875 46.6875 
L 2.875 51.90625 
L 10.796875 51.90625 
L 10.796875 68.015625 
L 19.828125 68.015625 
L 19.828125 51.90625 
L 36.71875 51.90625 
L 36.71875 46.6875 
L 19.828125 46.6875 
L 19.828125 13.71875 
Q 19.828125 7.125 21.09375 5.265625 
Q 22.359375 3.421875 25.78125 3.421875 
Q 29.296875 3.421875 30.90625 5.484375 
Q 32.515625 7.5625 32.625 12.203125 
L 39.40625 12.203125 
Q 39.015625 5.125 35.546875 1.84375 
Q 32.078125 -1.421875 25 -1.421875 
Q 17.234375 -1.421875 14.015625 2.015625 
Q 10.796875 5.46875 10.796875 13.71875 
z
" id="DejaVuSerif-116"/>
       <path id="DejaVuSerif-32"/>
       <path d="M 9.71875 69.828125 
Q 15.4375 71.96875 20.671875 73.09375 
Q 25.921875 74.21875 30.515625 74.21875 
Q 41.21875 74.21875 47.21875 69.59375 
Q 53.21875 64.984375 53.21875 56.78125 
Q 53.21875 50.203125 49.0625 45.78125 
Q 44.921875 41.359375 37.3125 39.796875 
Q 46.296875 38.53125 51.25 33.28125 
Q 56.203125 28.03125 56.203125 19.671875 
Q 56.203125 9.46875 49.34375 4.015625 
Q 42.484375 -1.421875 29.59375 -1.421875 
Q 23.875 -1.421875 18.421875 -0.1875 
Q 12.984375 1.03125 7.625 3.515625 
L 7.625 17.671875 
L 13.09375 17.671875 
Q 13.578125 10.640625 17.828125 7.03125 
Q 22.078125 3.421875 29.78125 3.421875 
Q 37.25 3.421875 41.578125 7.734375 
Q 45.90625 12.0625 45.90625 19.578125 
Q 45.90625 28.171875 41.453125 32.59375 
Q 37.015625 37.015625 28.421875 37.015625 
L 23.78125 37.015625 
L 23.78125 42 
L 26.21875 42 
Q 34.765625 42 39.03125 45.53125 
Q 43.3125 49.078125 43.3125 56.203125 
Q 43.3125 62.59375 39.796875 65.984375 
Q 36.28125 69.390625 29.6875 69.390625 
Q 23.09375 69.390625 19.453125 66.265625 
Q 15.828125 63.140625 15.1875 56.984375 
L 9.71875 56.984375 
z
" id="DejaVuSerif-51"/>
       <path d="M 4.390625 30.609375 
L 29.390625 30.609375 
L 29.390625 23 
L 4.390625 23 
z
" id="DejaVuSerif-45"/>
       <path d="M 24.703125 5.171875 
L 33.796875 5.171875 
Q 48 5.171875 55.59375 13.28125 
Q 63.1875 21.390625 63.1875 36.53125 
Q 63.1875 51.65625 55.609375 59.65625 
Q 48.046875 67.671875 33.796875 67.671875 
L 24.703125 67.671875 
z
M 5.515625 0 
L 5.515625 5.171875 
L 14.796875 5.171875 
L 14.796875 67.671875 
L 5.515625 67.671875 
L 5.515625 72.90625 
L 34.515625 72.90625 
Q 53.375 72.90625 63.890625 63.28125 
Q 74.421875 53.65625 74.421875 36.53125 
Q 74.421875 19.34375 63.875 9.671875 
Q 53.328125 0 34.515625 0 
z
" id="DejaVuSerif-68"/>
       <path d="M 39.796875 16.3125 
L 39.796875 27.296875 
L 28.21875 27.296875 
Q 21.53125 27.296875 18.25 24.40625 
Q 14.984375 21.53125 14.984375 15.578125 
Q 14.984375 10.15625 18.296875 6.984375 
Q 21.625 3.8125 27.296875 3.8125 
Q 32.90625 3.8125 36.34375 7.28125 
Q 39.796875 10.75 39.796875 16.3125 
z
M 48.78125 32.421875 
L 48.78125 5.171875 
L 56.78125 5.171875 
L 56.78125 0 
L 39.796875 0 
L 39.796875 5.609375 
Q 36.8125 2 32.90625 0.28125 
Q 29 -1.421875 23.78125 -1.421875 
Q 15.140625 -1.421875 10.0625 3.171875 
Q 4.984375 7.765625 4.984375 15.578125 
Q 4.984375 23.640625 10.796875 28.078125 
Q 16.609375 32.515625 27.203125 32.515625 
L 39.796875 32.515625 
L 39.796875 36.078125 
Q 39.796875 42 36.203125 45.234375 
Q 32.625 48.484375 26.125 48.484375 
Q 20.75 48.484375 17.578125 46.046875 
Q 14.40625 43.609375 13.625 38.8125 
L 8.984375 38.8125 
L 8.984375 49.3125 
Q 13.671875 51.3125 18.09375 52.3125 
Q 22.515625 53.328125 26.703125 53.328125 
Q 37.5 53.328125 43.140625 47.96875 
Q 48.78125 42.625 48.78125 32.421875 
z
" id="DejaVuSerif-97"/>
       <path d="M 47.796875 52 
L 47.796875 39.015625 
L 42.625 39.015625 
Q 42.390625 42.875 40.484375 44.78125 
Q 38.578125 46.6875 34.90625 46.6875 
Q 28.265625 46.6875 24.71875 42.09375 
Q 21.1875 37.5 21.1875 28.90625 
L 21.1875 5.171875 
L 31.59375 5.171875 
L 31.59375 0 
L 4.109375 0 
L 4.109375 5.171875 
L 12.203125 5.171875 
L 12.203125 46.78125 
L 3.609375 46.78125 
L 3.609375 51.90625 
L 21.1875 51.90625 
L 21.1875 42.671875 
Q 23.828125 48.09375 27.96875 50.703125 
Q 32.125 53.328125 38.09375 53.328125 
Q 40.28125 53.328125 42.703125 52.984375 
Q 45.125 52.640625 47.796875 52 
z
" id="DejaVuSerif-114"/>
       <path d="M 20.015625 26.421875 
L 46.78125 26.421875 
L 33.40625 61.078125 
z
M -0.59375 0 
L -0.59375 5.171875 
L 5.8125 5.171875 
L 31.78125 72.90625 
L 39.984375 72.90625 
L 66.015625 5.171875 
L 73.1875 5.171875 
L 73.1875 0 
L 46.6875 0 
L 46.6875 5.171875 
L 54.78125 5.171875 
L 48.6875 21.1875 
L 18.015625 21.1875 
L 11.921875 5.171875 
L 19.921875 5.171875 
L 19.921875 0 
z
" id="DejaVuSerif-65"/>
       <path d="M 24.703125 0 
L 5.609375 46.6875 
L -0.296875 46.6875 
L -0.296875 51.90625 
L 23.578125 51.90625 
L 23.578125 46.6875 
L 15.28125 46.6875 
L 29.890625 10.984375 
L 44.484375 46.6875 
L 36.71875 46.6875 
L 36.71875 51.90625 
L 56.203125 51.90625 
L 56.203125 46.6875 
L 50.390625 46.6875 
L 31.296875 0 
z
" id="DejaVuSerif-118"/>
       <path d="M 52.484375 46.6875 
L 52.484375 1.125 
Q 52.484375 -10.0625 46.328125 -16.140625 
Q 40.1875 -22.21875 28.8125 -22.21875 
Q 23.6875 -22.21875 19 -21.28125 
Q 14.3125 -20.359375 10.015625 -18.5 
L 10.015625 -7.625 
L 14.703125 -7.625 
Q 15.578125 -12.703125 18.84375 -15.046875 
Q 22.125 -17.390625 28.21875 -17.390625 
Q 36.140625 -17.390625 39.8125 -12.921875 
Q 43.5 -8.453125 43.5 1.125 
L 43.5 8.109375 
Q 40.875 3.21875 36.796875 0.890625 
Q 32.71875 -1.421875 26.703125 -1.421875 
Q 17.140625 -1.421875 11.0625 6.171875 
Q 4.984375 13.765625 4.984375 25.984375 
Q 4.984375 38.1875 11.03125 45.75 
Q 17.09375 53.328125 26.703125 53.328125 
Q 32.71875 53.328125 36.796875 51 
Q 40.875 48.6875 43.5 43.796875 
L 43.5 51.90625 
L 61.078125 51.90625 
L 61.078125 46.6875 
z
M 43.5 28.515625 
Q 43.5 37.84375 39.90625 42.765625 
Q 36.328125 47.703125 29.5 47.703125 
Q 22.5625 47.703125 19.015625 42.234375 
Q 15.484375 36.765625 15.484375 25.984375 
Q 15.484375 15.234375 19.015625 9.71875 
Q 22.5625 4.203125 29.5 4.203125 
Q 36.328125 4.203125 39.90625 9.109375 
Q 43.5 14.015625 43.5 23.390625 
z
" id="DejaVuSerif-103"/>
      </defs>
      <use xlink:href="#DejaVuSerif-83"/>
      <use x="68.505859" xlink:href="#DejaVuSerif-101"/>
      <use x="127.685547" xlink:href="#DejaVuSerif-116"/>
      <use x="167.871094" xlink:href="#DejaVuSerif-32"/>
      <use x="199.658203" xlink:href="#DejaVuSerif-51"/>
      <use x="263.28125" xlink:href="#DejaVuSerif-45"/>
      <use x="297.070312" xlink:href="#DejaVuSerif-68"/>
      <use x="377.246094" xlink:href="#DejaVuSerif-97"/>
      <use x="436.865234" xlink:href="#DejaVuSerif-114"/>
      <use x="484.667969" xlink:href="#DejaVuSerif-116"/>
      <use x="524.853516" xlink:href="#DejaVuSerif-32"/>
      <use x="556.640625" xlink:href="#DejaVuSerif-65"/>
      <use x="624.857422" xlink:href="#DejaVuSerif-118"/>
      <use x="681.351562" xlink:href="#DejaVuSerif-101"/>
      <use x="740.53125" xlink:href="#DejaVuSerif-114"/>
      <use x="788.333984" xlink:href="#DejaVuSerif-97"/>
      <use x="847.953125" xlink:href="#DejaVuSerif-103"/>
      <use x="911.966797" xlink:href="#DejaVuSerif-101"/>
     </g>
    </g>
   </g>
   <g id="matplotlib.axis_2">
    <g id="ytick_1">
     <g id="line2d_11">
      <path clip-path="url(#p94cda362a1)" d="M 108 315 
L 777.6 315 
" style="fill:none;stroke:#cccccc;stroke-linecap:round;"/>
     </g>
     <g id="text_12">
      <!-- 0.0 -->
      <g style="fill:#262626;" transform="translate(83.21 318.936797)scale(0.11 -0.11)">
       <use xlink:href="#ArialMT-48"/>
       <use x="55.615234" xlink:href="#ArialMT-46"/>
       <use x="83.398438" xlink:href="#ArialMT-48"/>
      </g>
     </g>
    </g>
    <g id="ytick_2">
     <g id="line2d_12">
      <path clip-path="url(#p94cda362a1)" d="M 108 262.516593 
L 777.6 262.516593 
" style="fill:none;stroke:#cccccc;stroke-linecap:round;"/>
     </g>
     <g id="text_13">
      <!-- 0.2 -->
      <g style="fill:#262626;" transform="translate(83.21 266.45339)scale(0.11 -0.11)">
       <use xlink:href="#ArialMT-48"/>
       <use x="55.615234" xlink:href="#ArialMT-46"/>
       <use x="83.398438" xlink:href="#ArialMT-50"/>
      </g>
     </g>
    </g>
    <g id="ytick_3">
     <g id="line2d_13">
      <path clip-path="url(#p94cda362a1)" d="M 108 210.033186 
L 777.6 210.033186 
" style="fill:none;stroke:#cccccc;stroke-linecap:round;"/>
     </g>
     <g id="text_14">
      <!-- 0.4 -->
      <g style="fill:#262626;" transform="translate(83.21 213.969983)scale(0.11 -0.11)">
       <use xlink:href="#ArialMT-48"/>
       <use x="55.615234" xlink:href="#ArialMT-46"/>
       <use x="83.398438" xlink:href="#ArialMT-52"/>
      </g>
     </g>
    </g>
    <g id="ytick_4">
     <g id="line2d_14">
      <path clip-path="url(#p94cda362a1)" d="M 108 157.54978 
L 777.6 157.54978 
" style="fill:none;stroke:#cccccc;stroke-linecap:round;"/>
     </g>
     <g id="text_15">
      <!-- 0.6 -->
      <g style="fill:#262626;" transform="translate(83.21 161.486577)scale(0.11 -0.11)">
       <defs>
        <path d="M 49.75 54.046875 
L 41.015625 53.375 
Q 39.84375 58.546875 37.703125 60.890625 
Q 34.125 64.65625 28.90625 64.65625 
Q 24.703125 64.65625 21.53125 62.3125 
Q 17.390625 59.28125 14.984375 53.46875 
Q 12.59375 47.65625 12.5 36.921875 
Q 15.671875 41.75 20.265625 44.09375 
Q 24.859375 46.4375 29.890625 46.4375 
Q 38.671875 46.4375 44.84375 39.96875 
Q 51.03125 33.5 51.03125 23.25 
Q 51.03125 16.5 48.125 10.71875 
Q 45.21875 4.9375 40.140625 1.859375 
Q 35.0625 -1.21875 28.609375 -1.21875 
Q 17.625 -1.21875 10.6875 6.859375 
Q 3.765625 14.9375 3.765625 33.5 
Q 3.765625 54.25 11.421875 63.671875 
Q 18.109375 71.875 29.4375 71.875 
Q 37.890625 71.875 43.28125 67.140625 
Q 48.6875 62.40625 49.75 54.046875 
z
M 13.875 23.1875 
Q 13.875 18.65625 15.796875 14.5 
Q 17.71875 10.359375 21.1875 8.171875 
Q 24.65625 6 28.46875 6 
Q 34.03125 6 38.03125 10.484375 
Q 42.046875 14.984375 42.046875 22.703125 
Q 42.046875 30.125 38.078125 34.390625 
Q 34.125 38.671875 28.125 38.671875 
Q 22.171875 38.671875 18.015625 34.390625 
Q 13.875 30.125 13.875 23.1875 
z
" id="ArialMT-54"/>
       </defs>
       <use xlink:href="#ArialMT-48"/>
       <use x="55.615234" xlink:href="#ArialMT-46"/>
       <use x="83.398438" xlink:href="#ArialMT-54"/>
      </g>
     </g>
    </g>
    <g id="ytick_5">
     <g id="line2d_15">
      <path clip-path="url(#p94cda362a1)" d="M 108 105.066373 
L 777.6 105.066373 
" style="fill:none;stroke:#cccccc;stroke-linecap:round;"/>
     </g>
     <g id="text_16">
      <!-- 0.8 -->
      <g style="fill:#262626;" transform="translate(83.21 109.00317)scale(0.11 -0.11)">
       <defs>
        <path d="M 17.671875 38.8125 
Q 12.203125 40.828125 9.5625 44.53125 
Q 6.9375 48.25 6.9375 53.421875 
Q 6.9375 61.234375 12.546875 66.546875 
Q 18.171875 71.875 27.484375 71.875 
Q 36.859375 71.875 42.578125 66.421875 
Q 48.296875 60.984375 48.296875 53.171875 
Q 48.296875 48.1875 45.671875 44.5 
Q 43.0625 40.828125 37.75 38.8125 
Q 44.34375 36.671875 47.78125 31.875 
Q 51.21875 27.09375 51.21875 20.453125 
Q 51.21875 11.28125 44.71875 5.03125 
Q 38.234375 -1.21875 27.640625 -1.21875 
Q 17.046875 -1.21875 10.546875 5.046875 
Q 4.046875 11.328125 4.046875 20.703125 
Q 4.046875 27.6875 7.59375 32.390625 
Q 11.140625 37.109375 17.671875 38.8125 
z
M 15.921875 53.71875 
Q 15.921875 48.640625 19.1875 45.40625 
Q 22.46875 42.1875 27.6875 42.1875 
Q 32.765625 42.1875 36.015625 45.375 
Q 39.265625 48.578125 39.265625 53.21875 
Q 39.265625 58.0625 35.90625 61.359375 
Q 32.5625 64.65625 27.59375 64.65625 
Q 22.5625 64.65625 19.234375 61.421875 
Q 15.921875 58.203125 15.921875 53.71875 
z
M 13.09375 20.65625 
Q 13.09375 16.890625 14.875 13.375 
Q 16.65625 9.859375 20.171875 7.921875 
Q 23.6875 6 27.734375 6 
Q 34.03125 6 38.125 10.046875 
Q 42.234375 14.109375 42.234375 20.359375 
Q 42.234375 26.703125 38.015625 30.859375 
Q 33.796875 35.015625 27.4375 35.015625 
Q 21.234375 35.015625 17.15625 30.90625 
Q 13.09375 26.8125 13.09375 20.65625 
z
" id="ArialMT-56"/>
       </defs>
       <use xlink:href="#ArialMT-48"/>
       <use x="55.615234" xlink:href="#ArialMT-46"/>
       <use x="83.398438" xlink:href="#ArialMT-56"/>
      </g>
     </g>
    </g>
    <g id="ytick_6">
     <g id="line2d_16">
      <path clip-path="url(#p94cda362a1)" d="M 108 52.582966 
L 777.6 52.582966 
" style="fill:none;stroke:#cccccc;stroke-linecap:round;"/>
     </g>
     <g id="text_17">
      <!-- 1.0 -->
      <g style="fill:#262626;" transform="translate(83.21 56.519763)scale(0.11 -0.11)">
       <use xlink:href="#ArialMT-49"/>
       <use x="55.615234" xlink:href="#ArialMT-46"/>
       <use x="83.398438" xlink:href="#ArialMT-48"/>
      </g>
     </g>
    </g>
    <g id="text_18">
     <!-- Density -->
     <g style="fill:#c44e52;" transform="translate(76.099375 205.9625)rotate(-90)scale(0.14 -0.14)">
      <defs>
       <path d="M 4.109375 0 
L 4.109375 5.171875 
L 12.203125 5.171875 
L 12.203125 46.6875 
L 3.609375 46.6875 
L 3.609375 51.90625 
L 21.1875 51.90625 
L 21.1875 42.671875 
Q 23.6875 47.953125 27.65625 50.640625 
Q 31.640625 53.328125 36.921875 53.328125 
Q 45.515625 53.328125 49.5625 48.390625 
Q 53.609375 43.453125 53.609375 33.015625 
L 53.609375 5.171875 
L 61.625 5.171875 
L 61.625 0 
L 36.8125 0 
L 36.8125 5.171875 
L 44.578125 5.171875 
L 44.578125 30.171875 
Q 44.578125 39.703125 42.234375 43.234375 
Q 39.890625 46.78125 33.984375 46.78125 
Q 27.734375 46.78125 24.453125 42.203125 
Q 21.1875 37.640625 21.1875 28.90625 
L 21.1875 5.171875 
L 29 5.171875 
L 29 0 
z
" id="DejaVuSerif-110"/>
       <path d="M 5.609375 2.875 
L 5.609375 14.984375 
L 10.796875 14.984375 
Q 10.984375 9.1875 14.421875 6.296875 
Q 17.875 3.421875 24.609375 3.421875 
Q 30.671875 3.421875 33.84375 5.6875 
Q 37.015625 7.953125 37.015625 12.3125 
Q 37.015625 15.71875 34.6875 17.8125 
Q 32.375 19.921875 24.90625 22.3125 
L 18.40625 24.515625 
Q 11.71875 26.65625 8.71875 29.875 
Q 5.71875 33.109375 5.71875 38.09375 
Q 5.71875 45.21875 10.9375 49.265625 
Q 16.15625 53.328125 25.390625 53.328125 
Q 29.5 53.328125 34.03125 52.25 
Q 38.578125 51.171875 43.40625 49.125 
L 43.40625 37.796875 
L 38.234375 37.796875 
Q 38.03125 42.828125 34.703125 45.65625 
Q 31.390625 48.484375 25.6875 48.484375 
Q 20.015625 48.484375 17.109375 46.484375 
Q 14.203125 44.484375 14.203125 40.484375 
Q 14.203125 37.203125 16.40625 35.21875 
Q 18.609375 33.25 25.203125 31.203125 
L 32.328125 29 
Q 39.703125 26.703125 42.9375 23.265625 
Q 46.1875 19.828125 46.1875 14.40625 
Q 46.1875 7.03125 40.546875 2.796875 
Q 34.90625 -1.421875 25 -1.421875 
Q 19.96875 -1.421875 15.1875 -0.34375 
Q 10.40625 0.734375 5.609375 2.875 
z
" id="DejaVuSerif-115"/>
       <path d="M 9.71875 68.015625 
Q 9.71875 70.265625 11.34375 71.921875 
Q 12.984375 73.578125 15.28125 73.578125 
Q 17.53125 73.578125 19.15625 71.921875 
Q 20.796875 70.265625 20.796875 68.015625 
Q 20.796875 65.71875 19.1875 64.109375 
Q 17.578125 62.5 15.28125 62.5 
Q 12.984375 62.5 11.34375 64.109375 
Q 9.71875 65.71875 9.71875 68.015625 
z
M 21.1875 5.171875 
L 29.6875 5.171875 
L 29.6875 0 
L 3.609375 0 
L 3.609375 5.171875 
L 12.203125 5.171875 
L 12.203125 46.6875 
L 3.609375 46.6875 
L 3.609375 51.90625 
L 21.1875 51.90625 
z
" id="DejaVuSerif-105"/>
       <path d="M 21.578125 -9.515625 
L 25 -0.875 
L 5.609375 46.6875 
L -0.296875 46.6875 
L -0.296875 51.90625 
L 23.578125 51.90625 
L 23.578125 46.6875 
L 15.28125 46.6875 
L 29.890625 10.984375 
L 44.484375 46.6875 
L 36.71875 46.6875 
L 36.71875 51.90625 
L 56.203125 51.90625 
L 56.203125 46.6875 
L 50.390625 46.6875 
L 26.609375 -11.71875 
Q 24.171875 -17.78125 21.1875 -20 
Q 18.21875 -22.21875 12.796875 -22.21875 
Q 10.5 -22.21875 8.078125 -21.828125 
Q 5.671875 -21.4375 3.21875 -20.703125 
L 3.21875 -10.796875 
L 7.8125 -10.796875 
Q 8.109375 -14.109375 9.5 -15.546875 
Q 10.890625 -17 13.8125 -17 
Q 16.5 -17 18.140625 -15.5 
Q 19.78125 -14.015625 21.578125 -9.515625 
z
" id="DejaVuSerif-121"/>
      </defs>
      <use xlink:href="#DejaVuSerif-68"/>
      <use x="80.175781" xlink:href="#DejaVuSerif-101"/>
      <use x="139.355469" xlink:href="#DejaVuSerif-110"/>
      <use x="203.759766" xlink:href="#DejaVuSerif-115"/>
      <use x="255.078125" xlink:href="#DejaVuSerif-105"/>
      <use x="287.060547" xlink:href="#DejaVuSerif-116"/>
      <use x="327.246094" xlink:href="#DejaVuSerif-121"/>
     </g>
    </g>
   </g>
   <g id="patch_3">
    <path clip-path="url(#p94cda362a1)" d="M 158.727273 315 
L 169.426116 315 
L 169.426116 314.391282 
L 158.727273 314.391282 
z
" style="fill:#55a868;fill-opacity:0.5;stroke:#ffffff;stroke-dasharray:3.7,1.6;stroke-dashoffset:0;stroke-linejoin:miter;"/>
   </g>
   <g id="patch_4">
    <path clip-path="url(#p94cda362a1)" d="M 169.426116 315 
L 180.124959 315 
L 180.124959 314.543462 
L 169.426116 314.543462 
z
" style="fill:#55a868;fill-opacity:0.5;stroke:#ffffff;stroke-dasharray:3.7,1.6;stroke-dashoffset:0;stroke-linejoin:miter;"/>
   </g>
   <g id="patch_5">
    <path clip-path="url(#p94cda362a1)" d="M 180.124959 315 
L 190.823802 315 
L 190.823802 314.086924 
L 180.124959 314.086924 
z
" style="fill:#55a868;fill-opacity:0.5;stroke:#ffffff;stroke-dasharray:3.7,1.6;stroke-dashoffset:0;stroke-linejoin:miter;"/>
   </g>
   <g id="patch_6">
    <path clip-path="url(#p94cda362a1)" d="M 190.823802 315 
L 201.522645 315 
L 201.522645 312.56513 
L 190.823802 312.56513 
z
" style="fill:#55a868;fill-opacity:0.5;stroke:#ffffff;stroke-dasharray:3.7,1.6;stroke-dashoffset:0;stroke-linejoin:miter;"/>
   </g>
   <g id="patch_7">
    <path clip-path="url(#p94cda362a1)" d="M 201.522645 315 
L 212.221488 315 
L 212.221488 309.369363 
L 201.522645 309.369363 
z
" style="fill:#55a868;fill-opacity:0.5;stroke:#ffffff;stroke-dasharray:3.7,1.6;stroke-dashoffset:0;stroke-linejoin:miter;"/>
   </g>
   <g id="patch_8">
    <path clip-path="url(#p94cda362a1)" d="M 212.221488 315 
L 222.920331 315 
L 222.920331 307.999748 
L 212.221488 307.999748 
z
" style="fill:#55a868;fill-opacity:0.5;stroke:#ffffff;stroke-dasharray:3.7,1.6;stroke-dashoffset:0;stroke-linejoin:miter;"/>
   </g>
   <g id="patch_9">
    <path clip-path="url(#p94cda362a1)" d="M 222.920331 315 
L 233.619174 315 
L 233.619174 303.738725 
L 222.920331 303.738725 
z
" style="fill:#55a868;fill-opacity:0.5;stroke:#ffffff;stroke-dasharray:3.7,1.6;stroke-dashoffset:0;stroke-linejoin:miter;"/>
   </g>
   <g id="patch_10">
    <path clip-path="url(#p94cda362a1)" d="M 233.619174 315 
L 244.318017 315 
L 244.318017 294.151424 
L 233.619174 294.151424 
z
" style="fill:#55a868;fill-opacity:0.5;stroke:#ffffff;stroke-dasharray:3.7,1.6;stroke-dashoffset:0;stroke-linejoin:miter;"/>
   </g>
   <g id="patch_11">
    <path clip-path="url(#p94cda362a1)" d="M 244.318017 315 
L 255.01686 315 
L 255.01686 281.216175 
L 244.318017 281.216175 
z
" style="fill:#55a868;fill-opacity:0.5;stroke:#ffffff;stroke-dasharray:3.7,1.6;stroke-dashoffset:0;stroke-linejoin:miter;"/>
   </g>
   <g id="patch_12">
    <path clip-path="url(#p94cda362a1)" d="M 255.01686 315 
L 265.715702 315 
L 265.715702 266.911313 
L 255.01686 266.911313 
z
" style="fill:#55a868;fill-opacity:0.5;stroke:#ffffff;stroke-dasharray:3.7,1.6;stroke-dashoffset:0;stroke-linejoin:miter;"/>
   </g>
   <g id="patch_13">
    <path clip-path="url(#p94cda362a1)" d="M 265.715702 315 
L 276.414545 315 
L 276.414545 248.497606 
L 265.715702 248.497606 
z
" style="fill:#55a868;fill-opacity:0.5;stroke:#ffffff;stroke-dasharray:3.7,1.6;stroke-dashoffset:0;stroke-linejoin:miter;"/>
   </g>
   <g id="patch_14">
    <path clip-path="url(#p94cda362a1)" d="M 276.414545 315 
L 287.113388 315 
L 287.113388 233.888385 
L 276.414545 233.888385 
z
" style="fill:#55a868;fill-opacity:0.5;stroke:#ffffff;stroke-dasharray:3.7,1.6;stroke-dashoffset:0;stroke-linejoin:miter;"/>
   </g>
   <g id="patch_15">
    <path clip-path="url(#p94cda362a1)" d="M 287.113388 315 
L 297.812231 315 
L 297.812231 208.322247 
L 287.113388 208.322247 
z
" style="fill:#55a868;fill-opacity:0.5;stroke:#ffffff;stroke-dasharray:3.7,1.6;stroke-dashoffset:0;stroke-linejoin:miter;"/>
   </g>
   <g id="patch_16">
    <path clip-path="url(#p94cda362a1)" d="M 297.812231 315 
L 308.511074 315 
L 308.511074 188.691106 
L 297.812231 188.691106 
z
" style="fill:#55a868;fill-opacity:0.5;stroke:#ffffff;stroke-dasharray:3.7,1.6;stroke-dashoffset:0;stroke-linejoin:miter;"/>
   </g>
   <g id="patch_17">
    <path clip-path="url(#p94cda362a1)" d="M 308.511074 315 
L 319.209917 315 
L 319.209917 167.84253 
L 308.511074 167.84253 
z
" style="fill:#55a868;fill-opacity:0.5;stroke:#ffffff;stroke-dasharray:3.7,1.6;stroke-dashoffset:0;stroke-linejoin:miter;"/>
   </g>
   <g id="patch_18">
    <path clip-path="url(#p94cda362a1)" d="M 319.209917 315 
L 329.90876 315 
L 329.90876 160.842278 
L 319.209917 160.842278 
z
" style="fill:#55a868;fill-opacity:0.5;stroke:#ffffff;stroke-dasharray:3.7,1.6;stroke-dashoffset:0;stroke-linejoin:miter;"/>
   </g>
   <g id="patch_19">
    <path clip-path="url(#p94cda362a1)" d="M 329.90876 315 
L 340.607603 315 
L 340.607603 144.406904 
L 329.90876 144.406904 
z
" style="fill:#55a868;fill-opacity:0.5;stroke:#ffffff;stroke-dasharray:3.7,1.6;stroke-dashoffset:0;stroke-linejoin:miter;"/>
   </g>
   <g id="patch_20">
    <path clip-path="url(#p94cda362a1)" d="M 340.607603 315 
L 351.306446 315 
L 351.306446 130.558579 
L 340.607603 130.558579 
z
" style="fill:#55a868;fill-opacity:0.5;stroke:#ffffff;stroke-dasharray:3.7,1.6;stroke-dashoffset:0;stroke-linejoin:miter;"/>
   </g>
   <g id="patch_21">
    <path clip-path="url(#p94cda362a1)" d="M 351.306446 315 
L 362.005289 315 
L 362.005289 56.142857 
L 351.306446 56.142857 
z
" style="fill:#55a868;fill-opacity:0.5;stroke:#ffffff;stroke-dasharray:3.7,1.6;stroke-dashoffset:0;stroke-linejoin:miter;"/>
   </g>
   <g id="patch_22">
    <path clip-path="url(#p94cda362a1)" d="M 362.005289 315 
L 372.704132 315 
L 372.704132 153.689846 
L 362.005289 153.689846 
z
" style="fill:#55a868;fill-opacity:0.5;stroke:#ffffff;stroke-dasharray:3.7,1.6;stroke-dashoffset:0;stroke-linejoin:miter;"/>
   </g>
   <g id="patch_23">
    <path clip-path="url(#p94cda362a1)" d="M 372.704132 315 
L 383.402975 315 
L 383.402975 178.342908 
L 372.704132 178.342908 
z
" style="fill:#55a868;fill-opacity:0.5;stroke:#ffffff;stroke-dasharray:3.7,1.6;stroke-dashoffset:0;stroke-linejoin:miter;"/>
   </g>
   <g id="patch_24">
    <path clip-path="url(#p94cda362a1)" d="M 383.402975 315 
L 394.101818 315 
L 394.101818 181.538675 
L 383.402975 181.538675 
z
" style="fill:#55a868;fill-opacity:0.5;stroke:#ffffff;stroke-dasharray:3.7,1.6;stroke-dashoffset:0;stroke-linejoin:miter;"/>
   </g>
   <g id="patch_25">
    <path clip-path="url(#p94cda362a1)" d="M 394.101818 315 
L 404.800661 315 
L 404.800661 206.343915 
L 394.101818 206.343915 
z
" style="fill:#55a868;fill-opacity:0.5;stroke:#ffffff;stroke-dasharray:3.7,1.6;stroke-dashoffset:0;stroke-linejoin:miter;"/>
   </g>
   <g id="patch_26">
    <path clip-path="url(#p94cda362a1)" d="M 404.800661 315 
L 415.499504 315 
L 415.499504 222.170572 
L 404.800661 222.170572 
z
" style="fill:#55a868;fill-opacity:0.5;stroke:#ffffff;stroke-dasharray:3.7,1.6;stroke-dashoffset:0;stroke-linejoin:miter;"/>
   </g>
   <g id="patch_27">
    <path clip-path="url(#p94cda362a1)" d="M 415.499504 315 
L 426.198347 315 
L 426.198347 217.300831 
L 415.499504 217.300831 
z
" style="fill:#55a868;fill-opacity:0.5;stroke:#ffffff;stroke-dasharray:3.7,1.6;stroke-dashoffset:0;stroke-linejoin:miter;"/>
   </g>
   <g id="patch_28">
    <path clip-path="url(#p94cda362a1)" d="M 426.198347 315 
L 436.89719 315 
L 436.89719 251.236835 
L 426.198347 251.236835 
z
" style="fill:#55a868;fill-opacity:0.5;stroke:#ffffff;stroke-dasharray:3.7,1.6;stroke-dashoffset:0;stroke-linejoin:miter;"/>
   </g>
   <g id="patch_29">
    <path clip-path="url(#p94cda362a1)" d="M 436.89719 315 
L 447.596033 315 
L 447.596033 246.975813 
L 436.89719 246.975813 
z
" style="fill:#55a868;fill-opacity:0.5;stroke:#ffffff;stroke-dasharray:3.7,1.6;stroke-dashoffset:0;stroke-linejoin:miter;"/>
   </g>
   <g id="patch_30">
    <path clip-path="url(#p94cda362a1)" d="M 447.596033 315 
L 458.294876 315 
L 458.294876 267.976568 
L 447.596033 267.976568 
z
" style="fill:#55a868;fill-opacity:0.5;stroke:#ffffff;stroke-dasharray:3.7,1.6;stroke-dashoffset:0;stroke-linejoin:miter;"/>
   </g>
   <g id="patch_31">
    <path clip-path="url(#p94cda362a1)" d="M 458.294876 315 
L 468.993719 315 
L 468.993719 276.955152 
L 458.294876 276.955152 
z
" style="fill:#55a868;fill-opacity:0.5;stroke:#ffffff;stroke-dasharray:3.7,1.6;stroke-dashoffset:0;stroke-linejoin:miter;"/>
   </g>
   <g id="patch_32">
    <path clip-path="url(#p94cda362a1)" d="M 468.993719 315 
L 479.692562 315 
L 479.692562 289.281683 
L 468.993719 289.281683 
z
" style="fill:#55a868;fill-opacity:0.5;stroke:#ffffff;stroke-dasharray:3.7,1.6;stroke-dashoffset:0;stroke-linejoin:miter;"/>
   </g>
   <g id="patch_33">
    <path clip-path="url(#p94cda362a1)" d="M 479.692562 315 
L 490.391405 315 
L 490.391405 289.586042 
L 479.692562 289.586042 
z
" style="fill:#55a868;fill-opacity:0.5;stroke:#ffffff;stroke-dasharray:3.7,1.6;stroke-dashoffset:0;stroke-linejoin:miter;"/>
   </g>
   <g id="patch_34">
    <path clip-path="url(#p94cda362a1)" d="M 490.391405 315 
L 501.090248 315 
L 501.090248 299.325523 
L 490.391405 299.325523 
z
" style="fill:#55a868;fill-opacity:0.5;stroke:#ffffff;stroke-dasharray:3.7,1.6;stroke-dashoffset:0;stroke-linejoin:miter;"/>
   </g>
   <g id="patch_35">
    <path clip-path="url(#p94cda362a1)" d="M 501.090248 315 
L 511.789091 315 
L 511.789091 302.825649 
L 501.090248 302.825649 
z
" style="fill:#55a868;fill-opacity:0.5;stroke:#ffffff;stroke-dasharray:3.7,1.6;stroke-dashoffset:0;stroke-linejoin:miter;"/>
   </g>
   <g id="patch_36">
    <path clip-path="url(#p94cda362a1)" d="M 511.789091 315 
L 522.487934 315 
L 522.487934 307.695389 
L 511.789091 307.695389 
z
" style="fill:#55a868;fill-opacity:0.5;stroke:#ffffff;stroke-dasharray:3.7,1.6;stroke-dashoffset:0;stroke-linejoin:miter;"/>
   </g>
   <g id="patch_37">
    <path clip-path="url(#p94cda362a1)" d="M 522.487934 315 
L 533.186777 315 
L 533.186777 308.608466 
L 522.487934 308.608466 
z
" style="fill:#55a868;fill-opacity:0.5;stroke:#ffffff;stroke-dasharray:3.7,1.6;stroke-dashoffset:0;stroke-linejoin:miter;"/>
   </g>
   <g id="patch_38">
    <path clip-path="url(#p94cda362a1)" d="M 533.186777 315 
L 543.88562 315 
L 543.88562 311.043336 
L 533.186777 311.043336 
z
" style="fill:#55a868;fill-opacity:0.5;stroke:#ffffff;stroke-dasharray:3.7,1.6;stroke-dashoffset:0;stroke-linejoin:miter;"/>
   </g>
   <g id="patch_39">
    <path clip-path="url(#p94cda362a1)" d="M 543.88562 315 
L 554.584463 315 
L 554.584463 308.760645 
L 543.88562 308.760645 
z
" style="fill:#55a868;fill-opacity:0.5;stroke:#ffffff;stroke-dasharray:3.7,1.6;stroke-dashoffset:0;stroke-linejoin:miter;"/>
   </g>
   <g id="patch_40">
    <path clip-path="url(#p94cda362a1)" d="M 554.584463 315 
L 565.283306 315 
L 565.283306 313.021668 
L 554.584463 313.021668 
z
" style="fill:#55a868;fill-opacity:0.5;stroke:#ffffff;stroke-dasharray:3.7,1.6;stroke-dashoffset:0;stroke-linejoin:miter;"/>
   </g>
   <g id="patch_41">
    <path clip-path="url(#p94cda362a1)" d="M 565.283306 315 
L 575.982149 315 
L 575.982149 311.499874 
L 565.283306 311.499874 
z
" style="fill:#55a868;fill-opacity:0.5;stroke:#ffffff;stroke-dasharray:3.7,1.6;stroke-dashoffset:0;stroke-linejoin:miter;"/>
   </g>
   <g id="patch_42">
    <path clip-path="url(#p94cda362a1)" d="M 575.982149 315 
L 586.680992 315 
L 586.680992 313.478206 
L 575.982149 313.478206 
z
" style="fill:#55a868;fill-opacity:0.5;stroke:#ffffff;stroke-dasharray:3.7,1.6;stroke-dashoffset:0;stroke-linejoin:miter;"/>
   </g>
   <g id="patch_43">
    <path clip-path="url(#p94cda362a1)" d="M 586.680992 315 
L 597.379835 315 
L 597.379835 314.239103 
L 586.680992 314.239103 
z
" style="fill:#55a868;fill-opacity:0.5;stroke:#ffffff;stroke-dasharray:3.7,1.6;stroke-dashoffset:0;stroke-linejoin:miter;"/>
   </g>
   <g id="patch_44">
    <path clip-path="url(#p94cda362a1)" d="M 597.379835 315 
L 608.078678 315 
L 608.078678 314.543462 
L 597.379835 314.543462 
z
" style="fill:#55a868;fill-opacity:0.5;stroke:#ffffff;stroke-dasharray:3.7,1.6;stroke-dashoffset:0;stroke-linejoin:miter;"/>
   </g>
   <g id="patch_45">
    <path clip-path="url(#p94cda362a1)" d="M 608.078678 315 
L 618.777521 315 
L 618.777521 314.543462 
L 608.078678 314.543462 
z
" style="fill:#55a868;fill-opacity:0.5;stroke:#ffffff;stroke-dasharray:3.7,1.6;stroke-dashoffset:0;stroke-linejoin:miter;"/>
   </g>
   <g id="patch_46">
    <path clip-path="url(#p94cda362a1)" d="M 618.777521 315 
L 629.476364 315 
L 629.476364 314.239103 
L 618.777521 314.239103 
z
" style="fill:#55a868;fill-opacity:0.5;stroke:#ffffff;stroke-dasharray:3.7,1.6;stroke-dashoffset:0;stroke-linejoin:miter;"/>
   </g>
   <g id="patch_47">
    <path clip-path="url(#p94cda362a1)" d="M 629.476364 315 
L 640.175207 315 
L 640.175207 314.695641 
L 629.476364 314.695641 
z
" style="fill:#55a868;fill-opacity:0.5;stroke:#ffffff;stroke-dasharray:3.7,1.6;stroke-dashoffset:0;stroke-linejoin:miter;"/>
   </g>
   <g id="patch_48">
    <path clip-path="url(#p94cda362a1)" d="M 640.175207 315 
L 650.87405 315 
L 650.87405 314.543462 
L 640.175207 314.543462 
z
" style="fill:#55a868;fill-opacity:0.5;stroke:#ffffff;stroke-dasharray:3.7,1.6;stroke-dashoffset:0;stroke-linejoin:miter;"/>
   </g>
   <g id="patch_49">
    <path clip-path="url(#p94cda362a1)" d="M 650.87405 315 
L 661.572893 315 
L 661.572893 314.695641 
L 650.87405 314.695641 
z
" style="fill:#55a868;fill-opacity:0.5;stroke:#ffffff;stroke-dasharray:3.7,1.6;stroke-dashoffset:0;stroke-linejoin:miter;"/>
   </g>
   <g id="patch_50">
    <path clip-path="url(#p94cda362a1)" d="M 661.572893 315 
L 672.271736 315 
L 672.271736 315 
L 661.572893 315 
z
" style="fill:#55a868;fill-opacity:0.5;stroke:#ffffff;stroke-dasharray:3.7,1.6;stroke-dashoffset:0;stroke-linejoin:miter;"/>
   </g>
   <g id="patch_51">
    <path clip-path="url(#p94cda362a1)" d="M 672.271736 315 
L 682.970579 315 
L 682.970579 314.695641 
L 672.271736 314.695641 
z
" style="fill:#55a868;fill-opacity:0.5;stroke:#ffffff;stroke-dasharray:3.7,1.6;stroke-dashoffset:0;stroke-linejoin:miter;"/>
   </g>
   <g id="patch_52">
    <path clip-path="url(#p94cda362a1)" d="M 682.970579 315 
L 693.669421 315 
L 693.669421 315 
L 682.970579 315 
z
" style="fill:#55a868;fill-opacity:0.5;stroke:#ffffff;stroke-dasharray:3.7,1.6;stroke-dashoffset:0;stroke-linejoin:miter;"/>
   </g>
   <g id="patch_53">
    <path clip-path="url(#p94cda362a1)" d="M 693.669421 315 
L 704.368264 315 
L 704.368264 315 
L 693.669421 315 
z
" style="fill:#55a868;fill-opacity:0.5;stroke:#ffffff;stroke-dasharray:3.7,1.6;stroke-dashoffset:0;stroke-linejoin:miter;"/>
   </g>
   <g id="patch_54">
    <path clip-path="url(#p94cda362a1)" d="M 704.368264 315 
L 715.067107 315 
L 715.067107 315 
L 704.368264 315 
z
" style="fill:#55a868;fill-opacity:0.5;stroke:#ffffff;stroke-dasharray:3.7,1.6;stroke-dashoffset:0;stroke-linejoin:miter;"/>
   </g>
   <g id="patch_55">
    <path clip-path="url(#p94cda362a1)" d="M 715.067107 315 
L 725.76595 315 
L 725.76595 314.847821 
L 715.067107 314.847821 
z
" style="fill:#55a868;fill-opacity:0.5;stroke:#ffffff;stroke-dasharray:3.7,1.6;stroke-dashoffset:0;stroke-linejoin:miter;"/>
   </g>
   <g id="patch_56">
    <path clip-path="url(#p94cda362a1)" d="M 725.76595 315 
L 736.464793 315 
L 736.464793 314.847821 
L 725.76595 314.847821 
z
" style="fill:#55a868;fill-opacity:0.5;stroke:#ffffff;stroke-dasharray:3.7,1.6;stroke-dashoffset:0;stroke-linejoin:miter;"/>
   </g>
   <g id="patch_57">
    <path clip-path="url(#p94cda362a1)" d="M 736.464793 315 
L 747.163636 315 
L 747.163636 314.847821 
L 736.464793 314.847821 
z
" style="fill:#55a868;fill-opacity:0.5;stroke:#ffffff;stroke-dasharray:3.7,1.6;stroke-dashoffset:0;stroke-linejoin:miter;"/>
   </g>
   <g id="patch_58">
    <path clip-path="url(#p94cda362a1)" d="M 138.436364 315 
L 146.183802 315 
L 146.183802 314.78986 
L 138.436364 314.78986 
z
" style="fill:#808080;fill-opacity:0.5;stroke:#ffffff;stroke-dasharray:2.866552,1.23959;stroke-dashoffset:0;stroke-linejoin:miter;stroke-width:0.774744;"/>
   </g>
   <g id="patch_59">
    <path clip-path="url(#p94cda362a1)" d="M 146.183802 315 
L 153.93124 315 
L 153.93124 314.159441 
L 146.183802 314.159441 
z
" style="fill:#808080;fill-opacity:0.5;stroke:#ffffff;stroke-dasharray:2.866552,1.23959;stroke-dashoffset:0;stroke-linejoin:miter;stroke-width:0.774744;"/>
   </g>
   <g id="patch_60">
    <path clip-path="url(#p94cda362a1)" d="M 153.93124 315 
L 161.678678 315 
L 161.678678 314.579721 
L 153.93124 314.579721 
z
" style="fill:#808080;fill-opacity:0.5;stroke:#ffffff;stroke-dasharray:2.866552,1.23959;stroke-dashoffset:0;stroke-linejoin:miter;stroke-width:0.774744;"/>
   </g>
   <g id="patch_61">
    <path clip-path="url(#p94cda362a1)" d="M 161.678678 315 
L 169.426116 315 
L 169.426116 312.058045 
L 161.678678 312.058045 
z
" style="fill:#808080;fill-opacity:0.5;stroke:#ffffff;stroke-dasharray:2.866552,1.23959;stroke-dashoffset:0;stroke-linejoin:miter;stroke-width:0.774744;"/>
   </g>
   <g id="patch_62">
    <path clip-path="url(#p94cda362a1)" d="M 169.426116 315 
L 177.173554 315 
L 177.173554 314.579721 
L 169.426116 314.579721 
z
" style="fill:#808080;fill-opacity:0.5;stroke:#ffffff;stroke-dasharray:2.866552,1.23959;stroke-dashoffset:0;stroke-linejoin:miter;stroke-width:0.774744;"/>
   </g>
   <g id="patch_63">
    <path clip-path="url(#p94cda362a1)" d="M 177.173554 315 
L 184.920992 315 
L 184.920992 311.007347 
L 177.173554 311.007347 
z
" style="fill:#808080;fill-opacity:0.5;stroke:#ffffff;stroke-dasharray:2.866552,1.23959;stroke-dashoffset:0;stroke-linejoin:miter;stroke-width:0.774744;"/>
   </g>
   <g id="patch_64">
    <path clip-path="url(#p94cda362a1)" d="M 184.920992 315 
L 192.66843 315 
L 192.66843 308.485671 
L 184.920992 308.485671 
z
" style="fill:#808080;fill-opacity:0.5;stroke:#ffffff;stroke-dasharray:2.866552,1.23959;stroke-dashoffset:0;stroke-linejoin:miter;stroke-width:0.774744;"/>
   </g>
   <g id="patch_65">
    <path clip-path="url(#p94cda362a1)" d="M 192.66843 315 
L 200.415868 315 
L 200.415868 298.819248 
L 192.66843 298.819248 
z
" style="fill:#808080;fill-opacity:0.5;stroke:#ffffff;stroke-dasharray:2.866552,1.23959;stroke-dashoffset:0;stroke-linejoin:miter;stroke-width:0.774744;"/>
   </g>
   <g id="patch_66">
    <path clip-path="url(#p94cda362a1)" d="M 200.415868 315 
L 208.163306 315 
L 208.163306 310.166788 
L 200.415868 310.166788 
z
" style="fill:#808080;fill-opacity:0.5;stroke:#ffffff;stroke-dasharray:2.866552,1.23959;stroke-dashoffset:0;stroke-linejoin:miter;stroke-width:0.774744;"/>
   </g>
   <g id="patch_67">
    <path clip-path="url(#p94cda362a1)" d="M 208.163306 315 
L 215.910744 315 
L 215.910744 285.370311 
L 208.163306 285.370311 
z
" style="fill:#808080;fill-opacity:0.5;stroke:#ffffff;stroke-dasharray:2.866552,1.23959;stroke-dashoffset:0;stroke-linejoin:miter;stroke-width:0.774744;"/>
   </g>
   <g id="patch_68">
    <path clip-path="url(#p94cda362a1)" d="M 215.910744 315 
L 223.658182 315 
L 223.658182 275.493748 
L 215.910744 275.493748 
z
" style="fill:#808080;fill-opacity:0.5;stroke:#ffffff;stroke-dasharray:2.866552,1.23959;stroke-dashoffset:0;stroke-linejoin:miter;stroke-width:0.774744;"/>
   </g>
   <g id="patch_69">
    <path clip-path="url(#p94cda362a1)" d="M 223.658182 315 
L 231.40562 315 
L 231.40562 255.740621 
L 223.658182 255.740621 
z
" style="fill:#808080;fill-opacity:0.5;stroke:#ffffff;stroke-dasharray:2.866552,1.23959;stroke-dashoffset:0;stroke-linejoin:miter;stroke-width:0.774744;"/>
   </g>
   <g id="patch_70">
    <path clip-path="url(#p94cda362a1)" d="M 231.40562 315 
L 239.153058 315 
L 239.153058 293.355617 
L 231.40562 293.355617 
z
" style="fill:#808080;fill-opacity:0.5;stroke:#ffffff;stroke-dasharray:2.866552,1.23959;stroke-dashoffset:0;stroke-linejoin:miter;stroke-width:0.774744;"/>
   </g>
   <g id="patch_71">
    <path clip-path="url(#p94cda362a1)" d="M 239.153058 315 
L 246.900496 315 
L 246.900496 210.770738 
L 239.153058 210.770738 
z
" style="fill:#808080;fill-opacity:0.5;stroke:#ffffff;stroke-dasharray:2.866552,1.23959;stroke-dashoffset:0;stroke-linejoin:miter;stroke-width:0.774744;"/>
   </g>
   <g id="patch_72">
    <path clip-path="url(#p94cda362a1)" d="M 246.900496 315 
L 254.647934 315 
L 254.647934 229.683306 
L 246.900496 229.683306 
z
" style="fill:#808080;fill-opacity:0.5;stroke:#ffffff;stroke-dasharray:2.866552,1.23959;stroke-dashoffset:0;stroke-linejoin:miter;stroke-width:0.774744;"/>
   </g>
   <g id="patch_73">
    <path clip-path="url(#p94cda362a1)" d="M 254.647934 315 
L 262.395372 315 
L 262.395372 185.133702 
L 254.647934 185.133702 
z
" style="fill:#808080;fill-opacity:0.5;stroke:#ffffff;stroke-dasharray:2.866552,1.23959;stroke-dashoffset:0;stroke-linejoin:miter;stroke-width:0.774744;"/>
   </g>
   <g id="patch_74">
    <path clip-path="url(#p94cda362a1)" d="M 262.395372 315 
L 270.14281 315 
L 270.14281 260.363694 
L 262.395372 260.363694 
z
" style="fill:#808080;fill-opacity:0.5;stroke:#ffffff;stroke-dasharray:2.866552,1.23959;stroke-dashoffset:0;stroke-linejoin:miter;stroke-width:0.774744;"/>
   </g>
   <g id="patch_75">
    <path clip-path="url(#p94cda362a1)" d="M 270.14281 315 
L 277.890248 315 
L 277.890248 112.005107 
L 270.14281 112.005107 
z
" style="fill:#808080;fill-opacity:0.5;stroke:#ffffff;stroke-dasharray:2.866552,1.23959;stroke-dashoffset:0;stroke-linejoin:miter;stroke-width:0.774744;"/>
   </g>
   <g id="patch_76">
    <path clip-path="url(#p94cda362a1)" d="M 277.890248 315 
L 285.637686 315 
L 285.637686 116.62818 
L 277.890248 116.62818 
z
" style="fill:#808080;fill-opacity:0.5;stroke:#ffffff;stroke-dasharray:2.866552,1.23959;stroke-dashoffset:0;stroke-linejoin:miter;stroke-width:0.774744;"/>
   </g>
   <g id="patch_77">
    <path clip-path="url(#p94cda362a1)" d="M 285.637686 315 
L 293.385124 315 
L 293.385124 164.540018 
L 285.637686 164.540018 
z
" style="fill:#808080;fill-opacity:0.5;stroke:#ffffff;stroke-dasharray:2.866552,1.23959;stroke-dashoffset:0;stroke-linejoin:miter;stroke-width:0.774744;"/>
   </g>
   <g id="patch_78">
    <path clip-path="url(#p94cda362a1)" d="M 293.385124 315 
L 301.132562 315 
L 301.132562 69.977179 
L 293.385124 69.977179 
z
" style="fill:#808080;fill-opacity:0.5;stroke:#ffffff;stroke-dasharray:2.866552,1.23959;stroke-dashoffset:0;stroke-linejoin:miter;stroke-width:0.774744;"/>
   </g>
   <g id="patch_79">
    <path clip-path="url(#p94cda362a1)" d="M 301.132562 315 
L 308.88 315 
L 308.88 203.415851 
L 301.132562 203.415851 
z
" style="fill:#808080;fill-opacity:0.5;stroke:#ffffff;stroke-dasharray:2.866552,1.23959;stroke-dashoffset:0;stroke-linejoin:miter;stroke-width:0.774744;"/>
   </g>
   <g id="patch_80">
    <path clip-path="url(#p94cda362a1)" d="M 308.88 315 
L 316.627438 315 
L 316.627438 90.991143 
L 308.88 90.991143 
z
" style="fill:#808080;fill-opacity:0.5;stroke:#ffffff;stroke-dasharray:2.866552,1.23959;stroke-dashoffset:0;stroke-linejoin:miter;stroke-width:0.774744;"/>
   </g>
   <g id="patch_81">
    <path clip-path="url(#p94cda362a1)" d="M 316.627438 315 
L 324.374876 315 
L 324.374876 132.808932 
L 316.627438 132.808932 
z
" style="fill:#808080;fill-opacity:0.5;stroke:#ffffff;stroke-dasharray:2.866552,1.23959;stroke-dashoffset:0;stroke-linejoin:miter;stroke-width:0.774744;"/>
   </g>
   <g id="patch_82">
    <path clip-path="url(#p94cda362a1)" d="M 324.374876 315 
L 332.122314 315 
L 332.122314 67.455504 
L 324.374876 67.455504 
z
" style="fill:#808080;fill-opacity:0.5;stroke:#ffffff;stroke-dasharray:2.866552,1.23959;stroke-dashoffset:0;stroke-linejoin:miter;stroke-width:0.774744;"/>
   </g>
   <g id="patch_83">
    <path clip-path="url(#p94cda362a1)" d="M 332.122314 315 
L 339.869752 315 
L 339.869752 213.082274 
L 332.122314 213.082274 
z
" style="fill:#808080;fill-opacity:0.5;stroke:#ffffff;stroke-dasharray:2.866552,1.23959;stroke-dashoffset:0;stroke-linejoin:miter;stroke-width:0.774744;"/>
   </g>
   <g id="patch_84">
    <path clip-path="url(#p94cda362a1)" d="M 339.869752 315 
L 347.61719 315 
L 347.61719 115.157202 
L 339.869752 115.157202 
z
" style="fill:#808080;fill-opacity:0.5;stroke:#ffffff;stroke-dasharray:2.866552,1.23959;stroke-dashoffset:0;stroke-linejoin:miter;stroke-width:0.774744;"/>
   </g>
   <g id="patch_85">
    <path clip-path="url(#p94cda362a1)" d="M 347.61719 315 
L 355.364628 315 
L 355.364628 149.620103 
L 347.61719 149.620103 
z
" style="fill:#808080;fill-opacity:0.5;stroke:#ffffff;stroke-dasharray:2.866552,1.23959;stroke-dashoffset:0;stroke-linejoin:miter;stroke-width:0.774744;"/>
   </g>
   <g id="patch_86">
    <path clip-path="url(#p94cda362a1)" d="M 355.364628 315 
L 363.112066 315 
L 363.112066 177.358536 
L 355.364628 177.358536 
z
" style="fill:#808080;fill-opacity:0.5;stroke:#ffffff;stroke-dasharray:2.866552,1.23959;stroke-dashoffset:0;stroke-linejoin:miter;stroke-width:0.774744;"/>
   </g>
   <g id="patch_87">
    <path clip-path="url(#p94cda362a1)" d="M 363.112066 315 
L 370.859504 315 
L 370.859504 247.965455 
L 363.112066 247.965455 
z
" style="fill:#808080;fill-opacity:0.5;stroke:#ffffff;stroke-dasharray:2.866552,1.23959;stroke-dashoffset:0;stroke-linejoin:miter;stroke-width:0.774744;"/>
   </g>
   <g id="patch_88">
    <path clip-path="url(#p94cda362a1)" d="M 370.859504 315 
L 378.606942 315 
L 378.606942 168.112391 
L 370.859504 168.112391 
z
" style="fill:#808080;fill-opacity:0.5;stroke:#ffffff;stroke-dasharray:2.866552,1.23959;stroke-dashoffset:0;stroke-linejoin:miter;stroke-width:0.774744;"/>
   </g>
   <g id="patch_89">
    <path clip-path="url(#p94cda362a1)" d="M 378.606942 315 
L 386.35438 315 
L 386.35438 241.030847 
L 378.606942 241.030847 
z
" style="fill:#808080;fill-opacity:0.5;stroke:#ffffff;stroke-dasharray:2.866552,1.23959;stroke-dashoffset:0;stroke-linejoin:miter;stroke-width:0.774744;"/>
   </g>
   <g id="patch_90">
    <path clip-path="url(#p94cda362a1)" d="M 386.35438 315 
L 394.101818 315 
L 394.101818 239.770009 
L 386.35438 239.770009 
z
" style="fill:#808080;fill-opacity:0.5;stroke:#ffffff;stroke-dasharray:2.866552,1.23959;stroke-dashoffset:0;stroke-linejoin:miter;stroke-width:0.774744;"/>
   </g>
   <g id="patch_91">
    <path clip-path="url(#p94cda362a1)" d="M 394.101818 315 
L 401.849256 315 
L 401.849256 271.711234 
L 394.101818 271.711234 
z
" style="fill:#808080;fill-opacity:0.5;stroke:#ffffff;stroke-dasharray:2.866552,1.23959;stroke-dashoffset:0;stroke-linejoin:miter;stroke-width:0.774744;"/>
   </g>
   <g id="patch_92">
    <path clip-path="url(#p94cda362a1)" d="M 401.849256 315 
L 409.596694 315 
L 409.596694 249.646572 
L 401.849256 249.646572 
z
" style="fill:#808080;fill-opacity:0.5;stroke:#ffffff;stroke-dasharray:2.866552,1.23959;stroke-dashoffset:0;stroke-linejoin:miter;stroke-width:0.774744;"/>
   </g>
   <g id="patch_93">
    <path clip-path="url(#p94cda362a1)" d="M 409.596694 315 
L 417.344132 315 
L 417.344132 271.711234 
L 409.596694 271.711234 
z
" style="fill:#808080;fill-opacity:0.5;stroke:#ffffff;stroke-dasharray:2.866552,1.23959;stroke-dashoffset:0;stroke-linejoin:miter;stroke-width:0.774744;"/>
   </g>
   <g id="patch_94">
    <path clip-path="url(#p94cda362a1)" d="M 417.344132 315 
L 425.09157 315 
L 425.09157 270.030117 
L 417.344132 270.030117 
z
" style="fill:#808080;fill-opacity:0.5;stroke:#ffffff;stroke-dasharray:2.866552,1.23959;stroke-dashoffset:0;stroke-linejoin:miter;stroke-width:0.774744;"/>
   </g>
   <g id="patch_95">
    <path clip-path="url(#p94cda362a1)" d="M 425.09157 315 
L 432.839008 315 
L 432.839008 278.645842 
L 425.09157 278.645842 
z
" style="fill:#808080;fill-opacity:0.5;stroke:#ffffff;stroke-dasharray:2.866552,1.23959;stroke-dashoffset:0;stroke-linejoin:miter;stroke-width:0.774744;"/>
   </g>
   <g id="patch_96">
    <path clip-path="url(#p94cda362a1)" d="M 432.839008 315 
L 440.586446 315 
L 440.586446 296.087432 
L 432.839008 296.087432 
z
" style="fill:#808080;fill-opacity:0.5;stroke:#ffffff;stroke-dasharray:2.866552,1.23959;stroke-dashoffset:0;stroke-linejoin:miter;stroke-width:0.774744;"/>
   </g>
   <g id="patch_97">
    <path clip-path="url(#p94cda362a1)" d="M 440.586446 315 
L 448.333884 315 
L 448.333884 288.732545 
L 440.586446 288.732545 
z
" style="fill:#808080;fill-opacity:0.5;stroke:#ffffff;stroke-dasharray:2.866552,1.23959;stroke-dashoffset:0;stroke-linejoin:miter;stroke-width:0.774744;"/>
   </g>
   <g id="patch_98">
    <path clip-path="url(#p94cda362a1)" d="M 448.333884 315 
L 456.081322 315 
L 456.081322 300.920644 
L 448.333884 300.920644 
z
" style="fill:#808080;fill-opacity:0.5;stroke:#ffffff;stroke-dasharray:2.866552,1.23959;stroke-dashoffset:0;stroke-linejoin:miter;stroke-width:0.774744;"/>
   </g>
   <g id="patch_99">
    <path clip-path="url(#p94cda362a1)" d="M 456.081322 315 
L 463.82876 315 
L 463.82876 299.239527 
L 456.081322 299.239527 
z
" style="fill:#808080;fill-opacity:0.5;stroke:#ffffff;stroke-dasharray:2.866552,1.23959;stroke-dashoffset:0;stroke-linejoin:miter;stroke-width:0.774744;"/>
   </g>
   <g id="patch_100">
    <path clip-path="url(#p94cda362a1)" d="M 463.82876 315 
L 471.576198 315 
L 471.576198 309.956649 
L 463.82876 309.956649 
z
" style="fill:#808080;fill-opacity:0.5;stroke:#ffffff;stroke-dasharray:2.866552,1.23959;stroke-dashoffset:0;stroke-linejoin:miter;stroke-width:0.774744;"/>
   </g>
   <g id="patch_101">
    <path clip-path="url(#p94cda362a1)" d="M 471.576198 315 
L 479.323636 315 
L 479.323636 309.536369 
L 471.576198 309.536369 
z
" style="fill:#808080;fill-opacity:0.5;stroke:#ffffff;stroke-dasharray:2.866552,1.23959;stroke-dashoffset:0;stroke-linejoin:miter;stroke-width:0.774744;"/>
   </g>
   <g id="patch_102">
    <path clip-path="url(#p94cda362a1)" d="M 479.323636 315 
L 487.071074 315 
L 487.071074 307.224833 
L 479.323636 307.224833 
z
" style="fill:#808080;fill-opacity:0.5;stroke:#ffffff;stroke-dasharray:2.866552,1.23959;stroke-dashoffset:0;stroke-linejoin:miter;stroke-width:0.774744;"/>
   </g>
   <g id="patch_103">
    <path clip-path="url(#p94cda362a1)" d="M 487.071074 315 
L 494.818512 315 
L 494.818512 310.376928 
L 487.071074 310.376928 
z
" style="fill:#808080;fill-opacity:0.5;stroke:#ffffff;stroke-dasharray:2.866552,1.23959;stroke-dashoffset:0;stroke-linejoin:miter;stroke-width:0.774744;"/>
   </g>
   <g id="patch_104">
    <path clip-path="url(#p94cda362a1)" d="M 494.818512 315 
L 502.56595 315 
L 502.56595 312.058045 
L 494.818512 312.058045 
z
" style="fill:#808080;fill-opacity:0.5;stroke:#ffffff;stroke-dasharray:2.866552,1.23959;stroke-dashoffset:0;stroke-linejoin:miter;stroke-width:0.774744;"/>
   </g>
   <g id="patch_105">
    <path clip-path="url(#p94cda362a1)" d="M 502.56595 315 
L 510.313388 315 
L 510.313388 312.688464 
L 502.56595 312.688464 
z
" style="fill:#808080;fill-opacity:0.5;stroke:#ffffff;stroke-dasharray:2.866552,1.23959;stroke-dashoffset:0;stroke-linejoin:miter;stroke-width:0.774744;"/>
   </g>
   <g id="patch_106">
    <path clip-path="url(#p94cda362a1)" d="M 510.313388 315 
L 518.060826 315 
L 518.060826 312.058045 
L 510.313388 312.058045 
z
" style="fill:#808080;fill-opacity:0.5;stroke:#ffffff;stroke-dasharray:2.866552,1.23959;stroke-dashoffset:0;stroke-linejoin:miter;stroke-width:0.774744;"/>
   </g>
   <g id="patch_107">
    <path clip-path="url(#p94cda362a1)" d="M 518.060826 315 
L 525.808264 315 
L 525.808264 312.688464 
L 518.060826 312.688464 
z
" style="fill:#808080;fill-opacity:0.5;stroke:#ffffff;stroke-dasharray:2.866552,1.23959;stroke-dashoffset:0;stroke-linejoin:miter;stroke-width:0.774744;"/>
   </g>
   <g id="patch_108">
    <path clip-path="url(#p94cda362a1)" d="M 525.808264 315 
L 533.555702 315 
L 533.555702 313.318883 
L 525.808264 313.318883 
z
" style="fill:#808080;fill-opacity:0.5;stroke:#ffffff;stroke-dasharray:2.866552,1.23959;stroke-dashoffset:0;stroke-linejoin:miter;stroke-width:0.774744;"/>
   </g>
   <g id="patch_109">
    <path clip-path="url(#p94cda362a1)" d="M 533.555702 315 
L 541.30314 315 
L 541.30314 313.739162 
L 533.555702 313.739162 
z
" style="fill:#808080;fill-opacity:0.5;stroke:#ffffff;stroke-dasharray:2.866552,1.23959;stroke-dashoffset:0;stroke-linejoin:miter;stroke-width:0.774744;"/>
   </g>
   <g id="patch_110">
    <path clip-path="url(#p94cda362a1)" d="M 541.30314 315 
L 549.050579 315 
L 549.050579 314.579721 
L 541.30314 314.579721 
z
" style="fill:#808080;fill-opacity:0.5;stroke:#ffffff;stroke-dasharray:2.866552,1.23959;stroke-dashoffset:0;stroke-linejoin:miter;stroke-width:0.774744;"/>
   </g>
   <g id="patch_111">
    <path clip-path="url(#p94cda362a1)" d="M 549.050579 315 
L 556.798017 315 
L 556.798017 314.78986 
L 549.050579 314.78986 
z
" style="fill:#808080;fill-opacity:0.5;stroke:#ffffff;stroke-dasharray:2.866552,1.23959;stroke-dashoffset:0;stroke-linejoin:miter;stroke-width:0.774744;"/>
   </g>
   <g id="patch_112">
    <path clip-path="url(#p94cda362a1)" d="M 556.798017 315 
L 564.545455 315 
L 564.545455 314.369581 
L 556.798017 314.369581 
z
" style="fill:#808080;fill-opacity:0.5;stroke:#ffffff;stroke-dasharray:2.866552,1.23959;stroke-dashoffset:0;stroke-linejoin:miter;stroke-width:0.774744;"/>
   </g>
   <g id="line2d_17">
    <path clip-path="url(#p94cda362a1)" d="M 158.727273 314.760231 
L 176.469073 314.440302 
L 182.383006 314.124274 
L 188.296939 313.5448 
L 194.210873 312.640938 
L 200.124806 311.469509 
L 208.995706 309.464774 
L 214.909639 307.873787 
L 217.866606 306.912929 
L 220.823572 305.793778 
L 223.780539 304.473804 
L 226.737506 302.90395 
L 229.694472 301.036407 
L 232.651439 298.837201 
L 235.608406 296.295694 
L 238.565372 293.426651 
L 241.522339 290.266063 
L 244.479306 286.861781 
L 247.436272 283.256506 
L 250.393239 279.463975 
L 253.350206 275.451885 
L 256.307172 271.152824 
L 259.264139 266.511163 
L 265.178072 256.37739 
L 268.135039 251.221572 
L 271.092005 246.301113 
L 274.048972 241.762534 
L 277.005939 237.603002 
L 282.919872 229.548615 
L 285.876839 224.936184 
L 288.833805 219.498056 
L 291.790772 213.138186 
L 294.747739 206.020518 
L 300.661672 191.000689 
L 303.618639 183.835255 
L 306.575605 177.186878 
L 309.532572 171.110142 
L 312.489539 165.591491 
L 315.446505 160.584963 
L 318.403472 156.013373 
L 324.317405 147.694711 
L 330.231339 139.818849 
L 333.188305 136.154482 
L 336.145272 132.991837 
L 339.102238 130.655178 
L 342.059205 129.411132 
L 345.016172 129.375217 
L 347.973138 130.482498 
L 350.930105 132.527185 
L 353.887072 135.231891 
L 359.801005 141.497073 
L 371.628872 154.048345 
L 374.585838 157.664994 
L 377.542805 161.621305 
L 383.456738 170.18591 
L 386.413705 174.693344 
L 389.370672 179.413178 
L 392.327638 184.405374 
L 401.198538 200.19306 
L 404.155505 205.094266 
L 407.112471 209.554413 
L 410.069438 213.576971 
L 418.940338 224.707465 
L 427.811238 236.807865 
L 430.768205 240.452672 
L 433.725171 243.667541 
L 439.639105 249.654239 
L 442.596071 253.089738 
L 445.553038 257.026438 
L 451.466971 265.4209 
L 454.423938 269.122298 
L 457.380905 272.206286 
L 460.337871 274.748868 
L 466.251804 279.058218 
L 475.122704 285.182929 
L 489.907538 294.755341 
L 492.864504 296.544109 
L 495.821471 298.188051 
L 498.778438 299.682352 
L 504.692371 302.31572 
L 507.649338 303.474364 
L 510.606304 304.5023 
L 513.563271 305.378699 
L 519.477204 306.753048 
L 531.305071 309.110932 
L 537.219004 309.974974 
L 549.046871 311.376038 
L 554.960804 312.090892 
L 557.917771 312.323653 
L 563.831704 312.456656 
L 572.702604 312.359008 
L 578.616537 312.614218 
L 587.487437 313.450447 
L 593.40137 313.951382 
L 599.315304 314.255762 
L 608.186204 314.4294 
L 625.928004 314.454479 
L 652.540704 314.669299 
L 670.282503 314.838328 
L 688.024303 314.93941 
L 702.809137 314.974912 
L 735.33577 314.915123 
L 747.163636 314.921443 
L 747.163636 314.921443 
" style="fill:none;stroke:#55a868;stroke-linecap:round;stroke-width:1.5;"/>
   </g>
   <g id="line2d_18">
    <path clip-path="url(#p94cda362a1)" d="M 138.436364 314.76553 
L 157.707629 314.161726 
L 161.990132 313.756967 
L 170.555139 312.612433 
L 176.978894 311.687188 
L 181.261398 310.855812 
L 183.40265 310.289493 
L 185.543901 309.584887 
L 187.685153 308.722432 
L 189.826405 307.693699 
L 191.967656 306.502319 
L 194.108908 305.16152 
L 198.391412 302.093507 
L 202.673915 298.523938 
L 204.815167 296.505988 
L 206.956418 294.295938 
L 209.09767 291.87884 
L 213.380174 286.484957 
L 219.803929 277.701508 
L 224.086432 271.686036 
L 226.227684 268.513272 
L 228.368936 265.131411 
L 230.510187 261.489821 
L 234.792691 253.467041 
L 241.216446 240.815357 
L 245.498949 232.831711 
L 249.781453 224.984545 
L 251.922704 220.869723 
L 254.063956 216.48886 
L 256.205208 211.757511 
L 258.34646 206.618985 
L 260.487711 201.055868 
L 264.770215 188.868269 
L 269.052718 176.290103 
L 271.19397 170.425497 
L 273.335222 165.149979 
L 275.476473 160.615586 
L 277.617725 156.869588 
L 279.758977 153.840296 
L 281.900228 151.34784 
L 288.323984 144.603893 
L 290.465235 141.963333 
L 294.747739 136.005418 
L 299.030242 130.120718 
L 301.171494 127.565935 
L 303.312746 125.349033 
L 305.453997 123.447109 
L 307.595249 121.803899 
L 309.736501 120.371433 
L 311.877752 119.14592 
L 314.019004 118.185113 
L 316.160256 117.601086 
L 318.301508 117.529574 
L 320.442759 118.084401 
L 322.584011 119.312333 
L 324.725263 121.166625 
L 326.866514 123.512586 
L 331.149018 128.953122 
L 337.572773 137.525129 
L 339.714025 140.693962 
L 341.855276 144.225604 
L 343.996528 148.181917 
L 346.13778 152.54463 
L 350.420283 162.166963 
L 356.844038 177.678951 
L 361.126542 187.868299 
L 363.267794 192.576717 
L 365.409045 196.898591 
L 367.550297 200.828867 
L 371.8328 207.934274 
L 376.115304 215.092451 
L 380.397807 223.00901 
L 386.821562 235.277735 
L 391.104066 242.655565 
L 395.386569 249.199937 
L 399.669073 255.145221 
L 403.951576 260.540768 
L 406.092828 262.959961 
L 408.234079 265.149199 
L 410.375331 267.10261 
L 414.657835 270.456439 
L 418.940338 273.590341 
L 423.222841 277.062185 
L 429.646597 282.695762 
L 431.787848 284.40219 
L 433.9291 285.932673 
L 438.211603 288.539152 
L 444.635359 292.258803 
L 448.917862 295.11742 
L 457.482869 301.028891 
L 461.765372 303.572749 
L 463.906624 304.675658 
L 466.047876 305.646349 
L 468.189127 306.472937 
L 470.330379 307.151185 
L 472.471631 307.689235 
L 476.754134 308.444796 
L 496.0254 310.961757 
L 504.590407 311.843993 
L 513.155413 312.464068 
L 521.72042 312.814007 
L 528.144175 313.124778 
L 536.709182 313.854997 
L 543.132937 314.335928 
L 549.556693 314.574406 
L 564.545455 314.710157 
L 564.545455 314.710157 
" style="fill:none;stroke:#808080;stroke-linecap:round;stroke-width:1.5;"/>
   </g>
   <g id="patch_113">
    <path d="M 108 315 
L 108 43.2 
" style="fill:none;stroke:#cccccc;stroke-linecap:square;stroke-linejoin:miter;stroke-width:1.25;"/>
   </g>
   <g id="patch_114">
    <path d="M 108 315 
L 777.6 315 
" style="fill:none;stroke:#cccccc;stroke-linecap:square;stroke-linejoin:miter;stroke-width:1.25;"/>
   </g>
   <g id="text_19">
    <!-- WCD Cricket Wins/Losses -->
    <g style="fill:#c44e52;" transform="translate(514.109375 37.2)scale(0.2 -0.2)">
     <defs>
      <path d="M 76.21875 0 
L 68.21875 0 
L 51.515625 59.28125 
L 34.8125 0 
L 26.8125 0 
L 7.71875 67.671875 
L 0.484375 67.671875 
L 0.484375 72.90625 
L 27.09375 72.90625 
L 27.09375 67.671875 
L 18.015625 67.671875 
L 33.203125 13.8125 
L 49.8125 72.90625 
L 57.71875 72.90625 
L 74.609375 13.1875 
L 89.890625 67.671875 
L 81.5 67.671875 
L 81.5 72.90625 
L 102.484375 72.90625 
L 102.484375 67.671875 
L 95.3125 67.671875 
z
" id="DejaVuSerif-87"/>
      <path d="M 70.515625 19.28125 
Q 67.28125 9.078125 59.6875 3.828125 
Q 52.09375 -1.421875 40.484375 -1.421875 
Q 33.34375 -1.421875 27.234375 1.015625 
Q 21.140625 3.46875 16.40625 8.203125 
Q 10.9375 13.671875 8.265625 20.625 
Q 5.609375 27.59375 5.609375 36.375 
Q 5.609375 53.375 15.421875 63.796875 
Q 25.25 74.21875 41.3125 74.21875 
Q 47.265625 74.21875 54 72.65625 
Q 60.75 71.09375 68.5 67.921875 
L 68.5 51.125 
L 62.984375 51.125 
Q 61.1875 60.296875 55.734375 64.640625 
Q 50.296875 69 40.484375 69 
Q 28.8125 69 22.796875 60.71875 
Q 16.796875 52.4375 16.796875 36.375 
Q 16.796875 20.359375 22.796875 12.078125 
Q 28.8125 3.8125 40.484375 3.8125 
Q 48.640625 3.8125 53.90625 7.6875 
Q 59.1875 11.578125 61.53125 19.28125 
z
" id="DejaVuSerif-67"/>
      <path d="M 51.421875 15.578125 
Q 49.515625 7.28125 44.09375 2.921875 
Q 38.671875 -1.421875 30.078125 -1.421875 
Q 18.75 -1.421875 11.859375 6.078125 
Q 4.984375 13.578125 4.984375 25.984375 
Q 4.984375 38.421875 11.859375 45.875 
Q 18.75 53.328125 30.078125 53.328125 
Q 35.015625 53.328125 39.890625 52.171875 
Q 44.78125 51.03125 49.703125 48.6875 
L 49.703125 35.40625 
L 44.484375 35.40625 
Q 43.453125 42.234375 40.015625 45.359375 
Q 36.578125 48.484375 30.171875 48.484375 
Q 22.90625 48.484375 19.1875 42.84375 
Q 15.484375 37.203125 15.484375 25.984375 
Q 15.484375 14.75 19.171875 9.078125 
Q 22.859375 3.421875 30.171875 3.421875 
Q 35.984375 3.421875 39.453125 6.4375 
Q 42.921875 9.46875 44.1875 15.578125 
z
" id="DejaVuSerif-99"/>
      <path d="M 28.609375 0 
L 3.421875 0 
L 3.421875 5.171875 
L 11.53125 5.171875 
L 11.53125 70.796875 
L 2.875 70.796875 
L 2.875 75.984375 
L 20.515625 75.984375 
L 20.515625 26.515625 
L 42.390625 46.6875 
L 34.90625 46.6875 
L 34.90625 51.90625 
L 58.40625 51.90625 
L 58.40625 46.6875 
L 49.515625 46.6875 
L 34.078125 32.421875 
L 53.8125 5.171875 
L 61.28125 5.171875 
L 61.28125 0 
L 35.6875 0 
L 35.6875 5.171875 
L 43.109375 5.171875 
L 27.59375 26.515625 
L 20.515625 19.921875 
L 20.515625 5.171875 
L 28.609375 5.171875 
z
" id="DejaVuSerif-107"/>
      <path d="M 25.875 72.90625 
L 33.6875 72.90625 
L 7.8125 -9.28125 
L 0 -9.28125 
z
" id="DejaVuSerif-47"/>
      <path d="M 5.515625 0 
L 5.515625 5.171875 
L 14.796875 5.171875 
L 14.796875 67.671875 
L 5.515625 67.671875 
L 5.515625 72.90625 
L 33.984375 72.90625 
L 33.984375 67.671875 
L 24.703125 67.671875 
L 24.703125 6 
L 58.015625 6 
L 58.015625 18.21875 
L 64.015625 18.21875 
L 64.015625 0 
z
" id="DejaVuSerif-76"/>
      <path d="M 30.078125 3.421875 
Q 37.3125 3.421875 40.984375 9.125 
Q 44.671875 14.84375 44.671875 25.984375 
Q 44.671875 37.109375 40.984375 42.796875 
Q 37.3125 48.484375 30.078125 48.484375 
Q 22.859375 48.484375 19.171875 42.796875 
Q 15.484375 37.109375 15.484375 25.984375 
Q 15.484375 14.84375 19.1875 9.125 
Q 22.90625 3.421875 30.078125 3.421875 
z
M 30.078125 -1.421875 
Q 18.75 -1.421875 11.859375 6.078125 
Q 4.984375 13.578125 4.984375 25.984375 
Q 4.984375 38.375 11.84375 45.84375 
Q 18.703125 53.328125 30.078125 53.328125 
Q 41.453125 53.328125 48.3125 45.84375 
Q 55.171875 38.375 55.171875 25.984375 
Q 55.171875 13.578125 48.3125 6.078125 
Q 41.453125 -1.421875 30.078125 -1.421875 
z
" id="DejaVuSerif-111"/>
     </defs>
     <use xlink:href="#DejaVuSerif-87"/>
     <use x="102.783203" xlink:href="#DejaVuSerif-67"/>
     <use x="179.296875" xlink:href="#DejaVuSerif-68"/>
     <use x="259.472656" xlink:href="#DejaVuSerif-32"/>
     <use x="291.259766" xlink:href="#DejaVuSerif-67"/>
     <use x="367.773438" xlink:href="#DejaVuSerif-114"/>
     <use x="415.576172" xlink:href="#DejaVuSerif-105"/>
     <use x="447.558594" xlink:href="#DejaVuSerif-99"/>
     <use x="503.564453" xlink:href="#DejaVuSerif-107"/>
     <use x="564.160156" xlink:href="#DejaVuSerif-101"/>
     <use x="623.339844" xlink:href="#DejaVuSerif-116"/>
     <use x="663.525391" xlink:href="#DejaVuSerif-32"/>
     <use x="695.3125" xlink:href="#DejaVuSerif-87"/>
     <use x="796.345703" xlink:href="#DejaVuSerif-105"/>
     <use x="828.328125" xlink:href="#DejaVuSerif-110"/>
     <use x="892.732422" xlink:href="#DejaVuSerif-115"/>
     <use x="944.050781" xlink:href="#DejaVuSerif-47"/>
     <use x="977.742188" xlink:href="#DejaVuSerif-76"/>
     <use x="1044.148438" xlink:href="#DejaVuSerif-111"/>
     <use x="1104.353516" xlink:href="#DejaVuSerif-115"/>
     <use x="1155.671875" xlink:href="#DejaVuSerif-115"/>
     <use x="1206.990234" xlink:href="#DejaVuSerif-101"/>
     <use x="1266.169922" xlink:href="#DejaVuSerif-115"/>
    </g>
   </g>
   <g id="legend_1">
    <g id="patch_115">
     <path d="M 699.848906 83.119687 
L 769.9 83.119687 
Q 772.1 83.119687 772.1 80.919688 
L 772.1 50.9 
Q 772.1 48.7 769.9 48.7 
L 699.848906 48.7 
Q 697.648906 48.7 697.648906 50.9 
L 697.648906 80.919688 
Q 697.648906 83.119687 699.848906 83.119687 
z
" style="fill:#ffffff;opacity:0.8;stroke:#cccccc;stroke-linejoin:miter;"/>
    </g>
    <g id="line2d_19">
     <path d="M 702.048906 57.123594 
L 724.048906 57.123594 
" style="fill:none;stroke:#55a868;stroke-linecap:round;stroke-width:1.5;"/>
    </g>
    <g id="line2d_20"/>
    <g id="text_20">
     <!-- Wins -->
     <g style="fill:#262626;" transform="translate(732.848906 60.973594)scale(0.11 -0.11)">
      <defs>
       <path d="M 20.21875 0 
L 1.21875 71.578125 
L 10.9375 71.578125 
L 21.828125 24.65625 
Q 23.578125 17.28125 24.859375 10.015625 
Q 27.59375 21.484375 28.078125 23.25 
L 41.703125 71.578125 
L 53.125 71.578125 
L 63.375 35.359375 
Q 67.234375 21.875 68.953125 10.015625 
Q 70.3125 16.796875 72.515625 25.59375 
L 83.734375 71.578125 
L 93.265625 71.578125 
L 73.640625 0 
L 64.5 0 
L 49.421875 54.546875 
Q 47.515625 61.375 47.171875 62.9375 
Q 46.046875 58.015625 45.0625 54.546875 
L 29.890625 0 
z
" id="ArialMT-87"/>
       <path d="M 6.640625 61.46875 
L 6.640625 71.578125 
L 15.4375 71.578125 
L 15.4375 61.46875 
z
M 6.640625 0 
L 6.640625 51.859375 
L 15.4375 51.859375 
L 15.4375 0 
z
" id="ArialMT-105"/>
       <path d="M 6.59375 0 
L 6.59375 51.859375 
L 14.5 51.859375 
L 14.5 44.484375 
Q 20.21875 53.03125 31 53.03125 
Q 35.6875 53.03125 39.625 51.34375 
Q 43.5625 49.65625 45.515625 46.921875 
Q 47.46875 44.1875 48.25 40.4375 
Q 48.734375 37.984375 48.734375 31.890625 
L 48.734375 0 
L 39.9375 0 
L 39.9375 31.546875 
Q 39.9375 36.921875 38.90625 39.578125 
Q 37.890625 42.234375 35.28125 43.8125 
Q 32.671875 45.40625 29.15625 45.40625 
Q 23.53125 45.40625 19.453125 41.84375 
Q 15.375 38.28125 15.375 28.328125 
L 15.375 0 
z
" id="ArialMT-110"/>
       <path d="M 3.078125 15.484375 
L 11.765625 16.84375 
Q 12.5 11.625 15.84375 8.84375 
Q 19.1875 6.0625 25.203125 6.0625 
Q 31.25 6.0625 34.171875 8.515625 
Q 37.109375 10.984375 37.109375 14.3125 
Q 37.109375 17.28125 34.515625 19 
Q 32.71875 20.171875 25.53125 21.96875 
Q 15.875 24.421875 12.140625 26.203125 
Q 8.40625 27.984375 6.46875 31.125 
Q 4.546875 34.28125 4.546875 38.09375 
Q 4.546875 41.546875 6.125 44.5 
Q 7.71875 47.46875 10.453125 49.421875 
Q 12.5 50.921875 16.03125 51.96875 
Q 19.578125 53.03125 23.640625 53.03125 
Q 29.734375 53.03125 34.34375 51.265625 
Q 38.96875 49.515625 41.15625 46.5 
Q 43.359375 43.5 44.1875 38.484375 
L 35.59375 37.3125 
Q 35.015625 41.3125 32.203125 43.546875 
Q 29.390625 45.796875 24.265625 45.796875 
Q 18.21875 45.796875 15.625 43.796875 
Q 13.03125 41.796875 13.03125 39.109375 
Q 13.03125 37.40625 14.109375 36.03125 
Q 15.1875 34.625 17.484375 33.6875 
Q 18.796875 33.203125 25.25 31.453125 
Q 34.578125 28.953125 38.25 27.359375 
Q 41.9375 25.78125 44.03125 22.75 
Q 46.140625 19.734375 46.140625 15.234375 
Q 46.140625 10.84375 43.578125 6.953125 
Q 41.015625 3.078125 36.171875 0.953125 
Q 31.34375 -1.171875 25.25 -1.171875 
Q 15.140625 -1.171875 9.84375 3.03125 
Q 4.546875 7.234375 3.078125 15.484375 
z
" id="ArialMT-115"/>
      </defs>
      <use xlink:href="#ArialMT-87"/>
      <use x="94.384766" xlink:href="#ArialMT-105"/>
      <use x="116.601562" xlink:href="#ArialMT-110"/>
      <use x="172.216797" xlink:href="#ArialMT-115"/>
     </g>
    </g>
    <g id="line2d_21">
     <path d="M 702.048906 72.683438 
L 724.048906 72.683438 
" style="fill:none;stroke:#808080;stroke-linecap:round;stroke-width:1.5;"/>
    </g>
    <g id="line2d_22"/>
    <g id="text_21">
     <!-- Losses -->
     <g style="fill:#262626;" transform="translate(732.848906 76.533438)scale(0.11 -0.11)">
      <defs>
       <path d="M 7.328125 0 
L 7.328125 71.578125 
L 16.796875 71.578125 
L 16.796875 8.453125 
L 52.046875 8.453125 
L 52.046875 0 
z
" id="ArialMT-76"/>
       <path d="M 3.328125 25.921875 
Q 3.328125 40.328125 11.328125 47.265625 
Q 18.015625 53.03125 27.640625 53.03125 
Q 38.328125 53.03125 45.109375 46.015625 
Q 51.90625 39.015625 51.90625 26.65625 
Q 51.90625 16.65625 48.90625 10.90625 
Q 45.90625 5.171875 40.15625 2 
Q 34.421875 -1.171875 27.640625 -1.171875 
Q 16.75 -1.171875 10.03125 5.8125 
Q 3.328125 12.796875 3.328125 25.921875 
z
M 12.359375 25.921875 
Q 12.359375 15.96875 16.703125 11.015625 
Q 21.046875 6.0625 27.640625 6.0625 
Q 34.1875 6.0625 38.53125 11.03125 
Q 42.875 16.015625 42.875 26.21875 
Q 42.875 35.84375 38.5 40.796875 
Q 34.125 45.75 27.640625 45.75 
Q 21.046875 45.75 16.703125 40.8125 
Q 12.359375 35.890625 12.359375 25.921875 
z
" id="ArialMT-111"/>
       <path d="M 42.09375 16.703125 
L 51.171875 15.578125 
Q 49.03125 7.625 43.21875 3.21875 
Q 37.40625 -1.171875 28.375 -1.171875 
Q 17 -1.171875 10.328125 5.828125 
Q 3.65625 12.84375 3.65625 25.484375 
Q 3.65625 38.578125 10.390625 45.796875 
Q 17.140625 53.03125 27.875 53.03125 
Q 38.28125 53.03125 44.875 45.953125 
Q 51.46875 38.875 51.46875 26.03125 
Q 51.46875 25.25 51.421875 23.6875 
L 12.75 23.6875 
Q 13.234375 15.140625 17.578125 10.59375 
Q 21.921875 6.0625 28.421875 6.0625 
Q 33.25 6.0625 36.671875 8.59375 
Q 40.09375 11.140625 42.09375 16.703125 
z
M 13.234375 30.90625 
L 42.1875 30.90625 
Q 41.609375 37.453125 38.875 40.71875 
Q 34.671875 45.796875 27.984375 45.796875 
Q 21.921875 45.796875 17.796875 41.75 
Q 13.671875 37.703125 13.234375 30.90625 
z
" id="ArialMT-101"/>
      </defs>
      <use xlink:href="#ArialMT-76"/>
      <use x="55.615234" xlink:href="#ArialMT-111"/>
      <use x="111.230469" xlink:href="#ArialMT-115"/>
      <use x="161.230469" xlink:href="#ArialMT-115"/>
      <use x="211.230469" xlink:href="#ArialMT-101"/>
      <use x="266.845703" xlink:href="#ArialMT-115"/>
     </g>
    </g>
   </g>
  </g>
 </g>
 <defs>
  <clipPath id="p94cda362a1">
   <rect height="271.8" width="669.6" x="108" y="43.2"/>
  </clipPath>
 </defs>
</svg>
